<?xml version="1.0" encoding="UTF-8"?>
<!DOCTYPE svg PUBLIC "-//W3C//DTD SVG 1.1//EN" "http://www.w3.org/Graphics/SVG/1.1/DTD/svg11.dtd">
<!-- Creator: CorelDRAW X8 -->
<svg xmlns="http://www.w3.org/2000/svg" xml:space="preserve" width="1300px" height="311px" version="1.1" style="shape-rendering:geometricPrecision; text-rendering:geometricPrecision; image-rendering:optimizeQuality; fill-rule:evenodd; clip-rule:evenodd"
viewBox="0 0 1300 311"
 xmlns:xlink="http://www.w3.org/1999/xlink">
 <defs>
  <style type="text/css">
   <![CDATA[
    .fil72 {fill:none}
    .fil18 {fill:#FEFEFE}
    .fil5 {fill:#E6E7E8}
    .fil50 {fill:#DCDDDF}
    .fil17 {fill:#D2D3D5}
    .fil7 {fill:#373435}
    .fil58 {fill:#D7CC75}
    .fil38 {fill:#FFF212}
    .fil15 {fill:#FED69F}
    .fil26 {fill:#FED49D}
    .fil25 {fill:#D2B285}
    .fil69 {fill:#FFCC29}
    .fil23 {fill:#FBB86E}
    .fil13 {fill:#FBB24A}
    .fil68 {fill:#FAA954}
    .fil22 {fill:#F89E40}
    .fil29 {fill:#F68D3A}
    .fil20 {fill:#F58936}
    .fil9 {fill:#F47D36}
    .fil71 {fill:#ED3237}
    .fil31 {fill:#FAF7C1}
    .fil36 {fill:#ECF1C6}
    .fil11 {fill:#DAB588}
    .fil14 {fill:#CBEBF5}
    .fil1 {fill:#C9E9EF}
    .fil34 {fill:#CDE7D0}
    .fil10 {fill:#BE803B}
    .fil37 {fill:#C2E4D4}
    .fil28 {fill:#9B5047}
    .fil33 {fill:#ACDDDA}
    .fil55 {fill:#A09783}
    .fil16 {fill:#A4DCED}
    .fil24 {fill:#B0BB99}
    .fil39 {fill:#815133}
    .fil30 {fill:#905959}
    .fil21 {fill:#A6B89D}
    .fil19 {fill:#AC9D57}
    .fil27 {fill:#AD8D4C}
    .fil2 {fill:#95D7E3}
    .fil70 {fill:#A8CF45}
    .fil49 {fill:#7A563A}
    .fil53 {fill:#6D4E36}
    .fil48 {fill:#644832}
    .fil52 {fill:#5B422F}
    .fil47 {fill:#533A28}
    .fil51 {fill:#4D3727}
    .fil35 {fill:#92D6E1}
    .fil12 {fill:#97573C}
    .fil57 {fill:#45403D}
    .fil32 {fill:#45C7F4}
    .fil3 {fill:#32C1DB}
    .fil40 {fill:#5CBA51}
    .fil66 {fill:#00AFEF}
    .fil4 {fill:#0092B5}
    .fil67 {fill:#2957A4}
    .fil59 {fill:#727376;fill-rule:nonzero}
    .fil43 {fill:#373435;fill-rule:nonzero}
    .fil77 {fill:#FFCC29;fill-rule:nonzero}
    .fil78 {fill:#FAA954;fill-rule:nonzero}
    .fil75 {fill:#ED3237;fill-rule:nonzero}
    .fil76 {fill:#A8CF45;fill-rule:nonzero}
    .fil73 {fill:#00AFEF;fill-rule:nonzero}
    .fil74 {fill:#2957A4;fill-rule:nonzero}
    .fil42 {fill:black;fill-rule:nonzero}
    .fil54 {fill:url(#id4)}
    .fil56 {fill:url(#id5)}
    .fil60 {fill:url(#id6)}
    .fil44 {fill:url(#id7)}
    .fil6 {fill:url(#id8)}
    .fil8 {fill:url(#id9)}
    .fil0 {fill:url(#id10)}
    .fil46 {fill:url(#id11)}
    .fil45 {fill:url(#id12)}
    .fil41 {fill:url(#id13)}
    .fil61 {fill:url(#id14);fill-rule:nonzero}
    .fil65 {fill:url(#id15);fill-rule:nonzero}
    .fil63 {fill:url(#id16);fill-rule:nonzero}
    .fil64 {fill:url(#id17);fill-rule:nonzero}
    .fil62 {fill:url(#id18);fill-rule:nonzero}
   ]]>
  </style>
   <clipPath id="id0">
    <path d="M320 66c15,0 28,12 28,28 0,15 -13,28 -28,28 -16,0 -28,-13 -28,-28 0,-16 12,-28 28,-28z"/>
   </clipPath>
   <clipPath id="id1">
    <path d="M245 219c5,0 9,5 9,10 0,5 -4,10 -9,10 -5,0 -10,-5 -10,-10 0,-5 5,-10 10,-10z"/>
   </clipPath>
   <clipPath id="id2">
    <path d="M366 219c5,0 10,5 10,10 0,5 -5,10 -10,10 -5,0 -9,-5 -9,-10 0,-5 4,-10 9,-10z"/>
   </clipPath>
   <clipPath id="id3">
    <path d="M469 219c5,0 10,5 10,10 0,5 -5,10 -10,10 -5,0 -10,-5 -10,-10 0,-5 5,-10 10,-10z"/>
   </clipPath>
  <linearGradient id="id4" gradientUnits="userSpaceOnUse" x1="129.946" y1="68.8294" x2="146.245" y2="77.9034">
   <stop offset="0" style="stop-opacity:1; stop-color:#81ACBE"/>
   <stop offset="1" style="stop-opacity:1; stop-color:#FEFEFE"/>
  </linearGradient>
  <linearGradient id="id5" gradientUnits="userSpaceOnUse" xlink:href="#id4" x1="149.605" y1="56.9128" x2="169.772" y2="69.4825">
  </linearGradient>
  <linearGradient id="id6" gradientUnits="userSpaceOnUse" x1="402.451" y1="137.239" x2="517.677" y2="136.837">
   <stop offset="0" style="stop-opacity:1; stop-color:#51A8B1"/>
   <stop offset="0.368627" style="stop-opacity:1; stop-color:#70CAC8"/>
   <stop offset="1" style="stop-opacity:1; stop-color:#9DD3AF"/>
  </linearGradient>
  <radialGradient id="id7" gradientUnits="userSpaceOnUse" gradientTransform="matrix(0.19308 0.70215 -0.872317 0.155416 273 43)" cx="149.415" cy="175.031" r="122.539" fx="149.415" fy="175.031">
   <stop offset="0" style="stop-opacity:1; stop-color:#29C2DE"/>
   <stop offset="1" style="stop-opacity:1; stop-color:#0085A1"/>
  </radialGradient>
  <radialGradient id="id8" gradientUnits="userSpaceOnUse" gradientTransform="matrix(-1.35363 0.902814 -0.902814 -1.35363 516 352)" cx="141.259" cy="203.682" r="16.596" fx="141.259" fy="203.682">
   <stop offset="0" style="stop-opacity:1; stop-color:#FFCD57"/>
   <stop offset="1" style="stop-opacity:1; stop-color:#CB7246"/>
  </radialGradient>
  <radialGradient id="id9" gradientUnits="userSpaceOnUse" gradientTransform="matrix(-0.679186 1.69044 -1.69044 -0.679188 640 -27)" xlink:href="#id8" cx="197.497" cy="182.492" r="75.7436" fx="197.497" fy="182.492">
  </radialGradient>
  <radialGradient id="id10" gradientUnits="userSpaceOnUse" gradientTransform="matrix(-0.466412 0.812498 -0.812499 -0.466413 647 -91)" cx="364" cy="139.904" r="650" fx="364" fy="139.904">
   <stop offset="0" style="stop-opacity:1; stop-color:#FEFEFE"/>
   <stop offset="1" style="stop-opacity:1; stop-color:#E6E7E8"/>
  </radialGradient>
  <radialGradient id="id11" gradientUnits="userSpaceOnUse" gradientTransform="matrix(-0.225367 1.64122 -1.59614 -0.231733 352 -138)" xlink:href="#id7" cx="158.275" cy="99.1293" r="112.152" fx="158.275" fy="99.1293">
  </radialGradient>
  <radialGradient id="id12" gradientUnits="userSpaceOnUse" gradientTransform="matrix(0.974169 -1.24725 1.24727 0.974155 -175 99)" xlink:href="#id7" cx="76.4728" cy="142.196" r="60.1566" fx="76.4728" fy="142.196">
  </radialGradient>
  <radialGradient id="id13" gradientUnits="userSpaceOnUse" gradientTransform="matrix(-1.60398 0.653121 -0.653119 -1.60401 631 150)" xlink:href="#id7" cx="214.533" cy="111.46" r="47.133" fx="214.533" fy="111.46">
  </radialGradient>
  <radialGradient id="id14" gradientUnits="userSpaceOnUse" gradientTransform="matrix(-0.174657 1.23739 -1.23739 -0.174657 422 -244)" xlink:href="#id7" cx="274.194" cy="81.0476" r="24.0351" fx="274.194" fy="81.0476">
  </radialGradient>
  <radialGradient id="id15" gradientUnits="userSpaceOnUse" gradientTransform="matrix(-0.218128 1.54531 -1.54531 -0.218128 738 -681)" xlink:href="#id7" cx="504.119" cy="80.1933" r="18.962" fx="504.119" fy="80.1933">
  </radialGradient>
  <radialGradient id="id16" gradientUnits="userSpaceOnUse" gradientTransform="matrix(-0.205916 1.45872 -1.45872 -0.205916 617 -509)" xlink:href="#id7" cx="415.068" cy="79.8256" r="19.8287" fx="415.068" fy="79.8256">
  </radialGradient>
  <radialGradient id="id17" gradientUnits="userSpaceOnUse" gradientTransform="matrix(-0.17414 1.23368 -1.23367 -0.174137 630 -464)" xlink:href="#id7" cx="452.315" cy="79.9686" r="22.0944" fx="452.315" fy="79.9686">
  </radialGradient>
  <radialGradient id="id18" gradientUnits="userSpaceOnUse" gradientTransform="matrix(-0.181625 1.28666 -1.28666 -0.181625 543 -385)" xlink:href="#id7" cx="372.546" cy="79.5235" r="21.6097" fx="372.546" fy="79.5235">
  </radialGradient>
 </defs>
 <g id="Layer_x0020_1">
  <metadata id="CorelCorpID_0Corel-Layer"/>
  <polygon class="fil0" points="0,0 1300,0 1300,141 0,311 "/>
  <polygon class="fil1" points="1049,0 1300,0 1300,141 1264,146 "/>
  <polygon class="fil2" points="886,0 1049,0 1264,146 1077,170 "/>
  <polygon class="fil3" points="886,0 1077,170 808,205 582,0 "/>
  <polygon class="fil4" points="644,227 481,0 582,0 808,205 "/>
  <ellipse class="fil5" transform="matrix(0.276945 -0 -1.32153 0.369446 155.023 217.048)" rx="188" ry="7"/>
  <path class="fil6" d="M123 210c7,6 20,4 24,-3l2 -2c0,-1 0,-1 0,-2 -4,6 -8,7 -13,7 -3,1 -11,0 -15,-3l-2 -1 -3 -3c0,2 2,4 4,5l3 2zm18 -1c3,-2 6,-3 7,-5 3,-4 -1,-4 -2,-6 -2,-1 -4,-1 -6,0l-2 2c-1,4 1,6 3,9zm-10 -5l2 -2 1 -1 -5 -1 -2 -2 -4 -1c0,0 -1,0 -1,0 -1,-1 -2,-1 -3,-2 -1,0 -1,0 -1,0 0,3 -5,6 1,10l2 2 4 1c3,2 13,3 15,1 -1,-1 -2,-4 -2,-5 -1,-3 0,-3 0,-5 -1,1 -6,5 -7,5z"/>
  <path class="fil7" d="M116 203c5,5 11,9 20,7 5,0 9,-1 13,-7 0,1 0,1 0,2 -8,11 -26,11 -33,-2zm29 4l-4 2c-1,-1 -2,-3 -2,-4 -1,-2 0,-4 1,-7 -4,2 -6,4 -11,1 -1,-1 0,-2 -1,-4l-1 -1c1,1 1,1 1,2l-1 1c-1,0 -3,0 -4,0l4 1 2 2 5 1 -1 1 -2 2c1,0 6,-4 7,-5 0,2 -1,2 0,5 0,1 1,4 2,5 -5,2 -15,0 -19,-3 -3,-2 -4,-3 -4,-5 0,-1 1,-3 1,-6 -2,4 -4,7 -2,10 6,8 17,12 26,7 4,-1 10,-6 8,-11 -1,-1 -2,-2 -4,-3 2,3 5,4 -1,9z"/>
  <path class="fil8" d="M181 196c8,3 20,-3 22,-11l1 -2c0,-1 0,-1 0,-2 -2,7 -6,9 -11,11 -3,2 -10,3 -14,2l-3 -1 -4 -2c1,2 3,3 6,4l3 1zm12 -13c0,2 2,5 5,6 2,-2 4,-4 5,-7 1,-4 -3,-4 -4,-5 -3,0 -4,1 -6,2l0 4zm-6 5l1 -3 0 -1 -4 0 -3 -1 -4 1c0,0 -1,0 -1,-1 -1,0 -3,0 -4,0 0,0 0,0 0,0 1,3 -3,7 3,9l3 1 4 1c4,0 13,-2 15,-5 -1,0 -3,-2 -4,-3 -1,-3 0,-3 -1,-5 -1,1 -5,7 -5,7z"/>
  <path class="fil7" d="M172 191c7,4 13,5 21,1 5,-2 9,-4 11,-11 0,1 0,1 0,2 -4,13 -21,19 -32,8zm29 -5l-3 3c-2,-1 -3,-2 -4,-3 -2,-2 -1,-4 -1,-7 -3,3 -4,6 -10,4 -2,0 -1,-2 -2,-3l-1 0c1,0 1,0 1,1l0 1c-1,1 -3,1 -4,2l4 -1 3 1 4 0 0 1 -1 3c0,0 4,-6 5,-7 1,2 0,2 1,5 1,1 3,3 4,3 -4,4 -14,6 -20,4 -2,-1 -4,-2 -5,-3 0,-2 1,-4 0,-7 -1,5 -2,8 1,10 8,6 20,6 27,-1 3,-3 7,-9 4,-13 -1,-1 -3,-1 -5,-2 3,3 6,3 2,9z"/>
  <path class="fil9" d="M83 209l-47 -18c0,0 0,0 0,0 0,0 0,0 0,0 0,0 0,0 0,0 0,0 0,0 0,0 0,0 0,0 0,0 0,0 0,0 0,0 0,0 0,0 0,0 0,0 0,0 0,0 0,0 0,0 0,0 0,0 0,0 0,0 -2,-1 -3,-2 -3,-3 0,0 0,0 0,0 0,0 0,-1 0,-1 0,0 1,0 1,1l48 18c3,1 6,-1 8,-4l0 -1 3 0 -2 4c-1,4 -5,5 -8,4zm7 -8l11 -29c0,0 0,-3 0,-4 0,1 1,3 2,4l0 0c0,-1 0,-1 -1,-1 1,1 1,3 1,4 0,0 0,0 0,0 0,0 0,0 0,0 0,0 0,0 0,0 0,0 0,0 0,0l0 0 -10 26 -3 0z"/>
  <path class="fil10" d="M60 161l21 8 5 -12 -21 -7 -5 11zm24 14l-30 -11 8 -21 30 12 -8 20z"/>
  <polygon class="fil11" points="60,151 59,151 62,143 91,154 91,155 62,144 "/>
  <polygon class="fil12" points="64,153 63,153 64,149 86,157 86,157 65,150 "/>
  <polygon class="fil12" points="89,163 88,162 91,154 92,155 "/>
  <path class="fil13" d="M90 204c-2,3 -5,5 -8,3l-48 -18c-3,-1 -4,-5 -3,-8l11 -30c2,-3 5,-4 8,-3l48 18c3,1 4,5 3,8l-11 30z"/>
  <g>
   <path class="fil14" d="M31 181c0,0 0,0 0,0 0,0 0,0 0,0zm0 0c0,0 0,0 0,0 0,0 0,0 0,0l0 0zm0 0c0,0 0,0 0,0 0,0 0,0 0,0l0 0zm67 -15c0,0 0,0 0,0 0,0 0,0 0,0l0 0zm0 0c0,0 0,0 0,0 0,0 0,0 0,0l0 0zm0 0c0,0 0,0 0,0 0,0 0,0 0,0z"/>
  </g>
  <path class="fil15" d="M31 185c-1,-2 -1,-3 0,-4 0,0 0,0 0,0 0,0 0,0 0,0 0,0 0,0 0,0 0,0 0,0 0,0 0,0 0,0 0,0 0,0 0,0 0,0l0 0 11 -30c2,-3 5,-4 8,-3l48 18 -2 -1c-1,0 -1,1 -2,1l-43 -17c-3,-1 -7,1 -8,4l-11 30c0,0 0,0 -1,0 0,0 0,0 0,1 0,0 0,0 0,1z"/>
  <path class="fil16" d="M56 181c-2,4 -6,6 -10,5 -4,-2 -6,-6 -5,-10 2,-4 6,-6 10,-5 4,2 6,6 5,10z"/>
  <path class="fil17" d="M55 181c-2,3 -5,5 -9,4 -3,-2 -5,-6 -4,-9 2,-3 5,-5 9,-4 3,1 5,5 4,9z"/>
  <path class="fil18" d="M52 180c0,0 0,0 0,0 1,-2 0,-5 -2,-6 -2,0 -5,1 -5,3 0,0 -1,0 -1,0l8 3z"/>
  <path class="fil18" d="M44 177l0 0c0,0 0,1 1,1 0,0 0,0 0,-1l0 0 -1 0z"/>
  <path class="fil18" d="M45 178l0 0c0,0 0,0 0,0 0,0 1,0 1,0l0 0 -1 0z"/>
  <path class="fil18" d="M46 178l0 0c0,0 0,0 0,0 0,0 0,0 0,0l0 0 0 0z"/>
  <path class="fil18" d="M46 178l0 0c0,0 0,0 1,0 0,0 0,0 0,0l0 0 -1 0z"/>
  <path class="fil18" d="M47 178l0 0c0,0 0,1 0,1 0,0 1,0 1,0l0 -1 -1 0z"/>
  <path class="fil18" d="M48 179l0 0c0,0 0,0 0,0 0,0 0,0 0,0l0 0 0 0z"/>
  <path class="fil18" d="M48 179l0 0c0,0 0,0 1,0 0,0 0,0 0,0l0 0 -1 0z"/>
  <path class="fil18" d="M49 179l0 0c0,0 0,0 0,0 0,0 1,0 1,0l0 0 -1 0z"/>
  <path class="fil18" d="M50 179l0 0c0,0 0,1 0,1 0,0 0,0 0,0l0 -1 0 0z"/>
  <path class="fil18" d="M50 180l0 0c0,0 0,0 1,0 0,0 0,0 0,0l0 0 -1 0z"/>
  <path class="fil18" d="M51 180l0 0c0,0 0,0 0,0 0,0 1,0 1,0l0 0 -1 0z"/>
  <path class="fil18" d="M52 180l0 0c0,0 0,0 0,0 0,1 0,0 0,0l0 0 0 0z"/>
  <polygon class="fil18" points="48,179 48,179 46,184 46,184 "/>
  <polygon class="fil18" points="50,174 50,174 50,174 "/>
  <path class="fil19" d="M34 189c0,0 0,0 0,0 0,0 0,0 0,0 0,0 0,0 0,0z"/>
  <path class="fil20" d="M34 189c0,0 0,0 0,0 0,0 0,0 0,0 0,0 0,0 0,0z"/>
  <path class="fil19" d="M34 189c0,0 0,0 0,0 0,0 0,0 0,0z"/>
  <g>
   <path class="fil20" d="M34 189c0,0 0,0 0,0 0,0 0,0 0,0 0,0 0,0 0,0 0,0 0,0 0,0zm0 0c0,0 0,0 0,0 0,0 0,0 0,0l0 0zm0 0c0,0 0,0 0,0 0,0 0,0 0,0l0 0zm0 0c0,0 0,0 0,0 0,0 0,0 0,0z"/>
  </g>
  <path class="fil19" d="M101 174c0,0 0,0 0,0 0,0 0,0 0,0z"/>
  <path class="fil19" d="M101 174c0,0 0,0 0,0 0,0 0,0 0,0z"/>
  <path class="fil21" d="M34 189c0,0 0,0 0,0 0,0 0,0 0,0 0,0 0,0 0,0z"/>
  <path class="fil22" d="M34 189c0,0 0,0 0,0 0,0 0,0 0,0 0,0 0,0 0,0z"/>
  <path class="fil21" d="M34 189c0,0 0,0 0,0 0,0 0,0 0,0z"/>
  <path class="fil22" d="M34 189c0,0 0,0 0,0 0,0 0,0 0,0 0,0 0,0 0,0 0,0 0,0 0,0z"/>
  <path class="fil21" d="M34 189c0,0 0,0 0,0 0,0 0,0 0,0z"/>
  <path class="fil22" d="M34 189c0,0 0,0 0,0 0,0 0,0 0,0 0,0 0,0 0,0 0,0 0,0 0,0z"/>
  <path class="fil21" d="M34 189c0,0 0,0 0,0 0,0 0,0 0,0z"/>
  <path class="fil22" d="M34 189c0,0 0,0 0,0 0,0 0,0 0,0 0,0 0,0 0,0 0,0 0,0 0,0z"/>
  <path class="fil21" d="M34 189l0 0c0,0 0,0 0,0z"/>
  <g>
   <path class="fil22" d="M34 189c0,0 0,0 0,0 0,0 0,0 0,0 -2,-1 -3,-2 -3,-4 0,0 0,1 0,1 1,2 2,3 3,3zm46 15l-47 -18c-1,0 -1,-1 -2,-1 0,-1 0,-1 0,-2 4,-1 7,-2 10,-2 1,2 2,4 5,5 4,1 8,-1 10,-5 0,-1 0,-3 0,-5 5,-1 9,-2 14,-4l-1 4 7 2 3 -8c6,-2 11,-3 15,-4l4 1c1,1 2,1 2,1 0,1 0,2 0,3l-7 18 -16 -3c0,0 -1,0 -1,1l-1 8c0,1 0,2 1,2 0,0 0,0 0,0l13 2 -1 2c-1,3 -5,4 -8,3l0 0zm21 -30c1,-2 1,-3 0,-5 -1,-1 -2,-3 -3,-3 3,1 4,5 3,8l0 0zm-3 -8c0,0 0,0 0,0 0,0 0,0 0,0l0 0zm0 0c0,0 0,0 0,0 0,0 0,0 0,0l0 0zm0 0c0,0 0,0 0,0 0,0 0,0 0,0z"/>
  </g>
  <path class="fil23" d="M31 186c0,0 0,-1 0,-1 0,-1 0,-1 0,-1 0,-1 0,-1 0,-1 0,1 0,1 0,2 0,0 0,-1 0,-1 0,1 0,2 0,2zm70 -17c0,0 -1,-1 -1,-1 0,0 0,0 0,0 0,0 -1,0 -2,-1l-4 -1c1,0 1,-1 2,-1l2 1c0,0 0,0 0,0 0,0 0,0 0,0 0,0 0,0 0,0 0,0 0,0 0,0 0,0 0,0 0,0 0,0 0,0 0,0 1,0 2,2 3,3z"/>
  <path class="fil24" d="M46 186c-3,-1 -4,-3 -5,-5 0,-1 1,-1 1,-1 1,2 2,4 4,5 4,1 7,-1 9,-4 0,-2 0,-3 0,-4 0,0 1,-1 1,-1 0,2 0,4 0,5 -2,4 -6,6 -10,5z"/>
  <g>
   <path class="fil25" d="M46 185c-2,-1 -3,-3 -4,-5 2,0 4,-1 6,-1 0,0 0,0 0,0 0,0 0,0 0,0l0 0 0 0c0,0 0,0 0,0l4 1c0,0 0,0 0,0 1,-1 1,-2 1,-3 0,0 1,0 2,0 0,1 0,2 0,4 -2,3 -5,5 -9,4zm2 -6l-2 5 0 0 2 -5 0 0 0 0zm4 1l0 0c0,0 0,0 0,0 0,1 0,0 0,0l0 0 0 0 0 0zm-1 0l0 0c0,0 0,0 0,0 0,0 1,0 1,0l0 0 -1 0 0 0zm-1 0l0 0c0,0 0,0 1,0 0,0 0,0 0,0l0 0 -1 0 0 0zm0 -1l0 0c0,0 0,1 0,1 0,0 0,0 0,0l0 -1 0 0 0 0zm-1 0l0 0c0,0 0,0 0,0 0,0 1,0 1,0l0 0 -1 0 0 0zm-1 0l0 0c0,0 0,0 1,0 0,0 0,0 0,0l0 0 -1 0z"/>
  </g>
  <path class="fil26" d="M52 180l-4 -1c2,-1 3,-1 5,-2 0,1 0,2 -1,3 0,0 0,0 0,0z"/>
  <path class="fil26" d="M48 179c0,0 0,0 0,0 0,0 0,0 0,0l0 0 0 0c0,0 0,0 0,0z"/>
  <path class="fil26" d="M49 179c-1,0 -1,0 -1,0l0 0 1 0 0 0c0,0 0,0 0,0z"/>
  <path class="fil26" d="M49 179c0,0 0,0 0,0l0 0 1 0 0 0c0,0 -1,0 -1,0z"/>
  <path class="fil26" d="M50 180c0,0 0,-1 0,-1l0 0 0 0 0 1c0,0 0,0 0,0z"/>
  <path class="fil26" d="M51 180c-1,0 -1,0 -1,0l0 0 1 0 0 0c0,0 0,0 0,0z"/>
  <path class="fil26" d="M51 180c0,0 0,0 0,0l0 0 1 0 0 0c0,0 -1,0 -1,0z"/>
  <path class="fil22" d="M101 174c0,0 0,0 0,0 0,0 0,0 0,0zm0 0c0,0 0,0 0,0 0,0 0,0 0,0z"/>
  <path class="fil26" d="M52 180c0,0 0,0 0,0l0 0 0 0 0 0c0,0 0,1 0,0z"/>
  <polygon class="fil26" points="46,184 46,184 48,179 48,179 "/>
  <path class="fil27" d="M34 189c0,0 0,0 0,0 0,0 0,0 0,0 0,0 0,0 0,0z"/>
  <path class="fil9" d="M82 207l-48 -18c0,0 0,0 0,0 0,0 0,0 0,0 0,0 0,0 0,0 0,0 0,0 0,0 0,0 0,0 0,0 0,0 0,0 0,0 0,0 0,0 0,0 0,0 0,0 0,0 0,0 0,0 0,0 0,0 0,0 0,0 -1,0 -2,-1 -3,-3 0,0 0,1 0,1 0,-1 0,-1 0,-2 1,0 1,1 2,1l47 18c3,1 7,0 8,-3l1 -2 2 0 -1 5c-2,3 -5,5 -8,3zm7 -8l11 -28c0,-1 0,-2 0,-3 1,1 1,1 1,2l0 0c0,0 0,-1 0,-1 1,2 1,3 0,5 0,0 0,0 0,0 0,0 0,0 0,0 0,0 0,0 0,0 0,0 0,0 0,0l0 0 -10 25 -2 0z"/>
  <path class="fil28" d="M76 197c-1,0 -1,-1 -1,-2l1 -8c0,-1 1,-1 1,-1l16 3 -2 5c0,0 0,0 0,0 -1,0 -2,0 -2,0 -1,0 -1,1 -2,1 0,0 0,0 0,-1 -1,0 -1,0 -1,0 -1,-1 -1,-1 -1,-1 -1,0 -1,0 -1,0 -1,0 -2,0 -2,0 -1,0 -1,1 -2,1 0,0 0,-1 0,-1 0,0 -1,0 -1,0 0,-1 -1,-1 -1,-1 0,0 -1,0 -1,0l0 0c0,1 0,1 1,1 0,0 0,0 0,0 1,1 1,1 2,1 0,0 0,0 0,0 1,0 2,0 2,0 1,0 1,-1 2,0 0,0 0,0 0,0 1,0 1,0 1,0 0,1 1,1 1,1 0,0 1,0 1,0 1,0 1,0 2,0 0,0 1,-1 1,0 0,0 0,0 1,0l-1 1c0,0 0,0 0,0 -1,0 -2,0 -2,0 -1,0 -1,1 -2,0 0,0 0,0 0,0 -1,0 -1,0 -1,0 0,-1 -1,-1 -1,-1 0,0 -1,0 -1,0 -1,0 -1,0 -2,0 0,0 -1,1 -1,0 -1,0 -1,0 -1,0 0,0 0,0 -1,0 0,-1 0,-1 -1,-1 0,0 0,0 0,0l-1 0c1,0 1,0 1,0 0,1 1,1 1,1 0,0 0,1 1,1 0,0 0,0 1,0 1,0 1,0 2,0 0,0 0,-1 1,-1 0,0 0,0 1,1 0,0 0,0 0,0 1,1 1,1 2,1 0,0 0,0 0,0 1,0 2,0 2,0 1,0 1,-1 2,-1 0,0 0,0 0,0l-1 3 -13 -2c0,0 0,0 0,0z"/>
  <path class="fil26" d="M80 194c-1,0 -1,0 -2,-1 0,0 0,0 0,0 -1,0 -1,0 -1,-1l0 0c0,0 1,0 1,0 0,0 1,0 1,1 0,0 1,0 1,0 0,0 0,1 0,1 1,0 1,-1 2,-1 0,0 1,0 2,0 0,0 0,0 1,0 0,0 0,0 1,1 0,0 0,0 1,0 0,1 0,1 0,1 1,0 1,-1 2,-1 0,0 1,0 2,0 0,0 0,0 0,0l0 1c-1,0 -1,0 -1,0 0,-1 -1,0 -1,0 -1,0 -1,0 -2,0 0,0 -1,0 -1,0 0,0 -1,0 -1,-1 0,0 0,0 -1,0 0,0 0,0 0,0 -1,-1 -1,0 -2,0 0,0 -1,0 -2,0 0,0 0,0 0,0z"/>
  <path class="fil26" d="M79 196c-1,0 -1,-1 -1,-1 0,0 -1,0 -1,-1 0,0 0,0 -1,0l1 0c0,0 0,0 0,0 1,0 1,0 1,1 1,0 1,0 1,0 0,0 0,0 1,0 0,1 1,0 1,0 1,0 1,0 2,0 0,0 1,0 1,0 0,0 1,0 1,1 0,0 0,0 1,0 0,0 0,0 0,0 1,1 1,0 2,0 0,0 1,0 2,0 0,0 0,0 0,0l0 0c0,0 0,0 0,0 -1,0 -1,1 -2,1 0,0 -1,0 -2,0 0,0 0,0 0,0 -1,0 -1,0 -2,-1 0,0 0,0 0,0 -1,-1 -1,-1 -1,-1 -1,0 -1,1 -1,1 -1,0 -1,0 -2,0 -1,0 -1,0 -1,0z"/>
  <path class="fil29" d="M31 187c0,0 0,-1 0,-1 0,0 0,-1 0,-2 0,0 0,1 0,1 0,1 0,1 0,2zm70 -17c0,-1 0,-1 -1,-2 0,0 0,0 0,0 0,0 1,1 1,1 0,0 0,1 0,1z"/>
  <polygon class="fil30" points="76,178 69,176 73,165 80,168 "/>
  <polygon class="fil31" points="75,178 69,176 73,166 79,168 "/>
  <polygon class="fil32" points="77,173 71,171 70,173 76,175 "/>
  <polygon class="fil33" points="77,173 71,171 72,169 78,171 "/>
  <polygon class="fil32" points="77,173 71,171 71,171 77,173 "/>
  <polygon class="fil34" points="78,171 72,169 73,167 79,169 "/>
  <polygon class="fil35" points="78,171 72,169 72,169 78,171 "/>
  <polygon class="fil36" points="79,169 73,167 73,166 79,168 "/>
  <polygon class="fil37" points="79,169 73,167 73,167 79,169 "/>
  <path class="fil38" d="M77 172c0,-1 0,-1 -1,-2 -1,0 -2,1 -3,2l0 0 4 1 0 -1z"/>
  <path class="fil39" d="M72 174c0,0 0,0 -1,0 0,0 0,0 0,0l3 -6c0,0 0,0 1,0 0,0 0,1 0,1l-3 5z"/>
  <path class="fil40" d="M76 170c0,0 0,0 0,0l-1 -1c0,0 -1,0 -1,0 0,0 0,0 0,0l2 1c0,0 0,0 0,0z"/>
  <path class="fil40" d="M76 169c0,0 0,0 -1,0l0 -1c0,0 0,0 0,0 0,0 0,0 0,1l0 0c0,0 1,0 1,0z"/>
  <path class="fil40" d="M76 171c1,0 1,-1 0,-1l-2 -1c0,0 0,0 0,0 0,0 0,1 0,1l2 1c0,0 0,0 0,0z"/>
  <path class="fil40" d="M72 168c0,0 1,0 1,0l1 0c0,0 0,1 0,1 0,0 0,0 0,0l-2 -1c0,0 0,0 0,0l0 0z"/>
  <path class="fil40" d="M74 168c0,0 0,0 0,0l0 0c1,0 1,0 1,0 0,0 -1,0 -1,0l0 0c0,0 0,0 0,0z"/>
  <path class="fil40" d="M72 168l2 1c0,0 0,0 0,0 0,0 0,0 0,0l-2 -1 0 0z"/>
  <path class="fil41" d="M198 110c0,0 9,-2 10,-3 1,0 0,-4 2,-5 1,-1 4,0 4,1 1,2 0,3 0,3 0,0 11,0 10,5 -1,5 -13,15 -24,20l0 0c0,-2 0,-4 0,-6 0,-5 -1,-10 -2,-15l0 0z"/>
  <g>
   <path class="fil42" d="M198 109c0,0 9,-1 9,-2l-9 2zm10 -1c0,1 -7,2 -9,3 0,1 1,3 1,5 0,0 0,1 0,1l0 0c1,3 1,5 1,8l0 0 0 0c0,1 0,2 0,3 0,1 0,1 0,2 7,-4 15,-10 19,-14 1,-1 2,-2 2,-3 1,-1 1,-2 1,-2l0 0c1,-5 -9,-4 -9,-4l-1 0 1 -1c0,0 0,-1 0,-2 0,-1 -1,-1 -1,-1 0,0 0,-1 -1,-1 0,0 -1,0 -1,0 0,0 -1,0 -1,1 -1,0 -1,2 -1,3 0,1 0,1 -1,2l0 0 0 0zm-1 -1c1,0 1,-1 1,-1 0,-2 0,-3 1,-4 1,-1 1,-1 2,-1 0,0 1,0 2,0 0,0 1,1 1,1 1,1 1,1 1,1 0,1 0,2 0,2 3,0 10,1 9,6l0 0c0,1 0,2 -1,3 0,1 -1,2 -2,3 -4,5 -13,11 -21,15l0 0 0 0 -1 0 0 -1c0,-1 0,-2 0,-3 0,-1 0,-2 0,-3l0 0 0 0c0,-3 0,-5 0,-8l0 0c0,0 0,0 0,-1 -1,-2 -1,-4 -2,-6l0 0 1 -1 0 0 0 0 9 -2zm0 0l0 0 0 0z"/>
  </g>
  <path class="fil43" d="M89 119c-1,1 -4,2 -6,4 -2,2 -5,5 -8,8 -5,8 -4,16 -5,19 3,0 3,2 4,4 1,0 3,-3 4,-2 0,-3 2,-6 6,-9l0 0 0 0 0 0c0,0 1,0 1,0 0,-1 1,-1 1,-1 2,-1 4,-1 6,-1l2 0c0,0 0,1 0,2l-1 0c-2,0 -4,0 -6,1 0,0 -1,0 -1,0 0,0 -1,1 -1,1l0 0 0 0 0 0c-4,2 -4,6 -4,10 -1,0 -3,1 -4,1 -3,0 -5,-2 -7,-3 0,-1 -1,-1 -2,-2 0,-2 0,-8 2,-13 1,-2 2,-5 4,-8 2,-4 5,-6 8,-9 3,-2 6,-4 8,-5l2 0 0 1 -1 1 -2 1z"/>
  <path class="fil43" d="M145 70l0 0 0 0c16,0 30,6 40,16 10,10 16,24 16,39l0 0 0 0 0 0 0 0c0,15 -6,28 -16,38 -10,10 -24,16 -40,16l0 0 0 0 0 0 0 0c-15,0 -29,-6 -40,-16 -6,-6 -11,-13 -13,-22l2 0c2,8 7,15 13,21 10,9 23,15 38,15l0 0 0 0 0 0 0 0c15,0 29,-6 38,-15 10,-10 16,-23 16,-37l0 0 0 0 0 0 0 0c0,-15 -6,-28 -16,-37 -9,-10 -23,-16 -38,-16l0 0 0 0 0 0 0 0c-15,0 -28,6 -38,16 -8,7 -14,18 -15,29 -1,1 -2,1 -3,2 2,-13 8,-24 16,-33 11,-10 25,-16 40,-16l0 0 0 0z"/>
  <path class="fil44" d="M124 171c-1,2 -1,11 -4,15 -2,3 -4,17 8,9 13,-8 18,-16 22,-17 3,0 20,7 28,5 7,-1 -4,-17 -4,-17l0 0c-8,8 -17,12 -28,12 -8,0 -16,-2 -22,-7z"/>
  <g>
   <path class="fil42" d="M123 171l0 -1 0 0 0 0 1 0 0 0 0 0c0,1 1,1 1,1 0,0 1,1 1,1 2,1 4,2 7,3l0 0 0 0 0 0 0 0 0 0 0 0 0 0c0,0 1,1 1,1l0 0 0 0 0 0c1,0 1,0 2,0 0,0 1,0 1,1 3,0 6,1 9,1l0 0 0 0 0 0 0 0 0 0c1,0 1,0 2,-1l0 0c0,0 1,0 1,0l0 0c1,0 1,0 1,0 0,0 0,0 0,0l0 0 0 0c1,0 1,0 2,0 1,0 2,0 3,-1 4,-1 8,-2 12,-5l0 0 0 0c0,0 0,0 0,0 0,0 1,0 1,-1 1,0 1,-1 2,-1l0 0 0 0 0 0c0,-1 1,-1 1,-1 0,0 0,0 0,0 1,-1 2,-2 3,-2l0 0 0 0 0 -1 0 0 0 0 0 1 0 0 0 0 0 0 0 0 0 0c1,0 6,8 7,13 0,3 0,5 -3,5l0 0 0 0c-5,1 -12,-1 -19,-3l0 0c-2,-1 -4,-1 -5,-2 -2,0 -3,0 -4,0l0 0 0 0c-1,0 -2,1 -3,2l0 0c-1,0 -3,2 -4,3 -2,2 -4,3 -6,5 -2,2 -5,4 -8,7l0 0 0 0 0 0 0 0 0 0c-1,0 -1,0 -2,0 0,1 -1,1 -1,1 -2,1 -4,1 -5,1l0 0 0 0 0 0c0,0 0,0 0,0 -1,0 -1,0 -1,0 -1,0 -1,-1 -1,-2l0 0 0 0 0 0c0,0 -1,0 -1,0 0,0 0,-1 0,-1 0,-1 0,-1 0,-2l0 0 0 0 0 0c0,-1 0,-1 0,-2 0,0 0,0 0,-1 0,-2 1,-4 2,-5l0 0 0 0 0 0c0,0 0,-1 0,-1 1,0 1,-1 1,-1 1,-3 1,-6 2,-9l0 0 0 0 0 0 0 0c0,-1 0,-1 0,-2l0 0 0 0 0 0c0,-1 0,-1 0,-1l0 0zm51 -5l0 0 0 0zm-50 6l0 0c0,1 0,1 0,1 0,1 0,1 0,1l0 0 0 0c0,1 0,1 0,2 0,1 0,1 -1,2 0,3 -1,6 -2,8l0 0 0 0c0,0 0,1 -1,1 0,0 0,0 0,1 0,1 -1,3 -1,5l0 0c0,0 0,0 0,0 0,0 0,0 0,1 0,0 0,1 1,1l0 0 0 0c0,0 0,1 0,1 0,0 0,0 0,0 0,0 1,0 1,1l0 0c1,0 1,0 1,0 0,0 0,0 1,0 1,-1 3,-1 5,-3l0 0 0 0 0 0 0 0c3,-2 6,-4 8,-6 3,-2 4,-4 6,-5 1,-1 2,-2 2,-2 1,-1 2,-1 2,-2l0 0 0 0 0 0 0 0 0 0c-2,0 -3,0 -4,0 -1,0 -1,0 -1,0 -3,-1 -5,-1 -7,-2l0 0 0 0 0 0 0 0 0 0 -1 0 0 0c0,0 0,0 -1,0l0 0 0 0 0 0c0,-1 -1,-1 -1,-1 0,0 -1,0 -1,0 -2,-1 -4,-2 -6,-4zm31 6c0,0 1,0 2,1 1,0 1,0 2,0l0 0 0 0 0 0c7,2 15,4 19,3 2,0 2,-3 0,-7 -1,-3 -3,-6 -4,-8 0,1 0,1 -1,1 0,0 0,0 0,0 -1,1 -1,1 -2,2l0 0 0 0 0 0c0,0 0,0 -1,0 0,0 0,1 0,1 -1,0 -2,1 -3,2l0 0 0 0c0,0 -1,0 -1,1 -1,0 -2,0 -2,1 -3,1 -6,2 -9,3z"/>
  </g>
  <path class="fil45" d="M91 117c-5,2 -11,5 -16,14 -6,8 -6,20 -6,20 2,1 5,4 8,4 1,0 3,-1 3,-1 0,0 1,-8 4,-10 4,-2 6,-2 9,-2 -2,-6 -3,-11 -3,-17 0,-3 0,-5 1,-8z"/>
  <ellipse class="fil46" cx="145" cy="125" rx="55" ry="54"/>
  <circle class="fil7" transform="matrix(0.314092 -0.0464504 0.0464505 0.314092 160.236 111.831)" r="14"/>
  <circle class="fil7" transform="matrix(0.314092 -0.0464504 0.0464505 0.314092 181.585 108.674)" r="14"/>
  <path class="fil7" d="M190 128c-1,7 -7,13 -15,14 -8,2 -15,-2 -18,-9 4,2 10,5 17,4 7,-1 13,-6 16,-9z"/>
  <path class="fil47" d="M126 94c-22,7 -31,4 -33,-2 1,2 1,5 3,6 2,2 22,6 47,-6 25,-13 34,-23 30,-31 0,8 -13,23 -47,33z"/>
  <path class="fil47" d="M93 89c0,0 0,0 0,1 0,0 0,-1 0,-1l0 0z"/>
  <path class="fil48" d="M155 60l0 0c1,1 2,3 3,5l0 0c0,0 0,0 0,0l0 0c0,0 0,1 0,1l0 0c0,0 0,0 1,0l0 0c0,0 0,0 0,0l0 0c1,2 1,3 1,3 -25,17 -54,20 -54,20 0,0 0,-1 -1,-3l0 0c0,0 0,0 0,-1 0,0 0,0 0,0 0,0 0,0 0,0 0,0 0,0 0,0 0,0 0,0 0,-1 0,0 0,0 0,0 0,0 0,0 0,0 0,0 0,0 0,0 0,0 0,-1 0,-1 0,0 0,0 0,0 0,0 0,0 0,0 0,0 0,0 0,0 0,0 0,-1 0,-1 0,0 0,0 0,0 0,0 0,0 0,0 0,0 0,-1 0,-1 0,0 0,0 0,0 0,0 0,0 0,0 0,0 0,0 0,-1 0,0 0,0 -1,0 0,0 0,0 0,0 0,0 0,0 0,0 0,0 0,-1 0,-1 0,0 0,0 0,0l0 0c0,-1 0,-1 0,-2 -2,0 -5,2 -8,5 -2,2 -3,5 -3,7 0,0 0,1 0,1 0,1 0,1 0,2 2,6 11,9 33,2 34,-10 47,-25 47,-33 0,-6 -11,-8 -20,-4 1,1 2,2 2,3l0 0z"/>
  <path class="fil49" d="M119 51c-1,3 -4,2 -7,2 -2,0 -5,0 -7,3 -2,2 -2,13 -1,21 0,1 0,1 0,2 5,-1 28,-3 51,-19 0,-1 -1,-2 -2,-3 -3,-5 -6,-10 -10,-11 -7,-3 -20,0 -24,5z"/>
  <path class="fil49" d="M105 84c0,0 0,0 0,0 0,0 0,0 0,0z"/>
  <path class="fil49" d="M105 80c0,0 0,0 -1,0 1,0 1,0 1,0z"/>
  <path class="fil49" d="M105 81c0,0 0,0 0,0 0,0 0,0 0,0z"/>
  <path class="fil49" d="M105 84c0,0 0,0 0,0 0,0 0,0 0,0z"/>
  <path class="fil49" d="M104 80c0,0 0,0 0,0 0,0 0,0 0,0z"/>
  <path class="fil49" d="M105 82c0,0 0,0 0,0 0,0 0,0 0,0z"/>
  <path class="fil49" d="M104 79c0,0 0,0 0,0 0,0 0,0 0,0z"/>
  <path class="fil49" d="M105 83c0,0 0,0 0,0 0,0 0,0 0,0z"/>
  <path class="fil49" d="M105 83c0,0 0,0 0,0 0,0 0,0 0,0z"/>
  <path class="fil49" d="M105 82c0,0 0,-1 0,-1 0,0 0,1 0,1z"/>
  <path class="fil49" d="M158 65c0,0 0,0 0,0 0,0 0,0 0,0z"/>
  <path class="fil49" d="M158 65c0,0 0,1 0,1 0,0 0,-1 0,-1z"/>
  <path class="fil49" d="M105 86c1,2 1,3 1,3 0,0 29,-3 54,-20 0,0 0,-1 -1,-3 -5,4 -24,14 -54,20z"/>
  <path class="fil49" d="M158 66c0,0 0,0 1,0 -1,0 -1,0 -1,0z"/>
  <path class="fil49" d="M158 65c-1,-2 -2,-4 -3,-5 1,1 2,3 3,5z"/>
  <path class="fil49" d="M105 85c0,0 0,0 0,0 0,0 0,0 0,0z"/>
  <path class="fil49" d="M159 66c0,0 0,0 0,0 0,0 0,0 0,0z"/>
  <path class="fil49" d="M105 85c0,0 0,0 0,0 0,0 0,0 0,0z"/>
  <path class="fil47" d="M104 79c0,0 0,0 0,0 0,0 0,1 0,1 0,0 0,0 0,0 0,0 0,0 0,0 1,0 1,0 1,0 0,1 0,1 0,1 0,0 0,0 0,0 0,0 0,0 0,0 0,0 0,1 0,1 0,0 0,0 0,0 0,0 0,0 0,0 0,0 0,1 0,1 0,0 0,0 0,0 0,0 0,0 0,0 0,0 0,0 0,0 0,0 0,1 0,1 0,0 0,0 0,0 0,0 0,0 0,0 0,0 0,0 0,0 0,1 0,1 0,1 0,0 0,0 0,0 0,0 0,0 0,0 0,0 0,0 0,0 0,1 0,1 0,1l0 0c30,-6 49,-16 54,-20l0 0c0,0 0,0 0,0l0 0c-1,0 -1,0 -1,0l0 0c0,0 0,-1 0,-1l0 0c0,0 0,0 0,0l0 0c-1,-2 -2,-4 -3,-5l0 0c-23,16 -46,18 -51,19l0 0z"/>
  <g>
   <path class="fil50" d="M141 89l0 0 0 0 0 0zm0 0c-1,1 -2,1 -3,1l0 0c1,0 2,0 3,-1l0 0zm-2 -8l0 0 0 0 0 0 0 0zm0 0c-2,0 -3,1 -4,1l0 0c1,0 2,-1 4,-1l0 0zm21 -12c0,0 0,0 0,0 0,0 0,0 0,0l0 0zm0 0c0,0 0,0 0,0 0,0 0,0 0,0l0 0zm13 -8c0,0 0,0 0,0 0,0 0,0 0,0l0 0zm-18 -1c0,0 0,0 0,0 0,-1 -1,-2 -2,-3l0 0c1,1 2,2 2,3l0 0 0 0 0 0c0,0 0,0 0,0z"/>
  </g>
  <g>
   <path class="fil50" d="M173 62c0,0 0,-1 0,-1 0,0 0,1 0,1zm0 -1l0 0 0 0zm0 0l0 0c0,0 0,0 0,0l0 0c0,0 0,0 0,0l0 0zm0 0l0 0c0,0 0,0 0,0l0 0c0,0 0,0 0,0z"/>
  </g>
  <path class="fil51" d="M139 93l-1 -3c1,0 2,0 3,-1l0 0 0 0c23,-9 32,-21 32,-28 0,0 0,0 0,0 0,0 0,0 0,0l0 0c0,0 0,0 0,0 0,0 0,1 0,1 4,8 -5,17 -30,30 -1,0 -3,1 -4,1z"/>
  <path class="fil52" d="M141 89l0 0c-1,1 -2,1 -3,1l-3 -8c1,0 2,-1 4,-1l0 0 0 0c7,-3 14,-7 21,-12 0,0 0,0 0,0 0,0 0,0 0,0 0,0 0,0 0,0 0,0 0,0 0,0l0 0c0,0 0,-1 -1,-3l0 0c0,0 0,0 0,0 0,0 0,0 0,0l0 0 0 0c-1,0 -1,0 -1,0 0,0 0,0 0,0l0 0 0 0c0,0 0,0 0,0 0,-1 0,-1 0,-1l0 0 0 0c0,0 0,0 0,0 0,0 0,0 0,0l0 0 0 0c0,-1 -1,-2 -1,-3 -1,-1 -1,-2 -2,-2l0 0 0 0c0,-1 -1,-2 -2,-3 1,0 2,-1 2,-1 8,-3 17,-1 18,4 0,1 0,1 0,1 0,0 0,0 0,0 0,0 0,0 0,0 0,0 0,0 0,0 0,0 0,0 0,0l0 0c0,0 0,0 0,0 0,0 0,0 0,0 0,7 -9,19 -32,28l0 0z"/>
  <g>
   <path class="fil50" d="M140 76l0 0 0 0 0 0zm0 0c-2,1 -4,2 -7,3l0 0c3,-1 5,-2 7,-3l0 0zm19 -10c0,0 0,0 0,0 0,0 0,0 0,0l0 0zm0 0c0,0 0,0 0,0 0,0 0,0 0,0l0 0zm0 0c0,0 0,0 0,0 0,0 0,0 0,0l0 0zm-25 5l0 0 0 0 0 0 0 0zm0 0c-1,0 -2,1 -4,1l0 0c2,0 3,-1 4,-1l0 0zm9 -25c0,0 -1,-1 -1,-1 0,0 0,0 0,0 0,0 0,0 1,0 0,0 0,0 0,0 0,0 0,0 0,0 0,0 0,0 0,0 0,1 0,1 0,1l0 0z"/>
  </g>
  <g>
   <path class="fil50" d="M143 46c0,0 0,0 0,-1 0,1 0,1 0,1zm0 -1c0,0 0,0 0,0 0,0 0,0 0,0l0 0zm0 0c-1,0 -1,0 -1,0 0,0 0,0 1,0z"/>
  </g>
  <path class="fil50" d="M142 45c0,0 0,0 0,0 0,0 0,0 0,0zm0 0l0 0 0 0z"/>
  <path class="fil53" d="M134 71l0 0c-1,0 -2,1 -4,1l-9 -23c1,-1 2,-2 4,-2 5,-2 12,-3 17,-2l0 0c0,0 0,0 0,0 0,0 0,0 0,0 0,0 0,0 0,0 0,0 1,1 1,1l0 0c4,1 7,6 10,11l0 0c1,1 2,2 2,3 0,0 0,0 0,0 -7,5 -14,8 -21,11l0 0z"/>
  <path class="fil53" d="M158 65c0,0 0,0 0,0 0,0 0,0 0,0zm0 0l0 0c0,0 0,0 0,0l0 0c0,0 0,0 0,0l0 0z"/>
  <path class="fil53" d="M158 66c0,0 0,0 0,0 0,0 0,0 0,0zm0 0l0 0c0,-1 0,-1 0,-1l0 0c0,0 0,0 0,1l0 0z"/>
  <path class="fil53" d="M139 81l0 0c-2,0 -3,1 -4,1l-2 -3c3,-1 5,-2 7,-3 0,0 0,0 0,0l0 0 0 0c10,-4 16,-8 19,-10 0,0 0,0 0,0 0,0 0,0 0,0 0,0 0,0 0,0 0,0 0,0 0,0 0,0 0,0 0,0l0 0c1,2 1,3 1,3l0 0c0,0 0,0 0,0 0,0 0,0 0,0 0,0 0,0 0,0 0,0 0,0 0,0 -7,5 -14,9 -21,12l0 0z"/>
  <path class="fil53" d="M159 66c-1,0 -1,0 -1,0 0,0 0,0 1,0zm-1 0l0 0c0,0 0,0 0,0l0 0c0,0 0,0 0,0l0 0z"/>
  <path class="fil53" d="M158 65c0,-1 -1,-2 -1,-3 0,1 1,2 1,3zm-1 -3l0 0c-1,-1 -1,-2 -2,-2l0 0c1,0 1,1 2,2l0 0z"/>
  <path class="fil53" d="M159 66c0,0 0,0 0,0 0,0 0,0 0,0zm0 0l0 0c0,0 0,0 0,0l0 0c0,0 0,0 0,0l0 0z"/>
  <path class="fil51" d="M140 76c0,0 0,0 0,0 -2,1 -4,2 -7,3l-3 -7c2,0 3,-1 4,-1l0 0 0 0c7,-3 14,-6 21,-11 0,0 0,0 0,0l0 0 0 0c1,0 1,1 2,2 0,1 1,2 1,3l0 0c0,0 0,0 0,0 0,0 0,0 0,0l0 0c0,0 0,0 0,1 0,0 0,0 0,0l0 0c0,0 0,0 0,0 0,0 0,0 1,0l0 0c0,0 0,0 0,0 0,0 0,0 0,0l0 0c0,0 0,0 0,0 0,0 0,0 0,0 0,0 0,0 0,0 0,0 0,0 0,0 0,0 0,0 0,0 -3,2 -9,6 -19,10l0 0z"/>
  <path class="fil54" d="M132 71c-3,2 0,5 0,5 0,0 0,0 0,0 0,0 0,0 0,0 -1,1 -1,0 -1,0 -1,-1 -3,-4 0,-6 0,0 0,0 1,1 0,0 0,0 0,0zm1 -4c-2,1 -4,2 -5,4 -1,3 3,7 3,7 2,3 4,4 6,5 2,0 4,0 5,0 1,-1 1,-1 2,-2 1,-2 1,-6 0,-10 0,-3 -2,-5 -4,-6 -1,0 -4,1 -7,2z"/>
  <path class="fil55" d="M127 78c1,0 1,0 1,0l1 0c0,-1 -1,-1 -1,-2l-1 1c0,0 0,0 0,1z"/>
  <path class="fil55" d="M166 56l0 1c0,0 0,1 1,1l0 0c0,-1 0,-1 0,-1 0,-1 -1,-1 -1,-1z"/>
  <path class="fil56" d="M164 59c0,0 0,0 0,0 0,1 -1,1 -1,0 0,0 -2,-2 -5,-2 0,1 -1,0 -1,0 0,0 0,-1 0,-1 3,-1 6,1 7,3 0,0 0,0 0,0zm-5 -4c-2,0 -5,1 -6,2 -3,1 -5,3 -5,5 -1,1 1,3 4,4 5,3 11,4 13,4 1,0 2,0 3,-1 1,0 2,-2 2,-4 0,-1 -1,-3 -3,-6 0,0 -4,-4 -8,-4z"/>
  <path class="fil57" d="M131 70c-3,2 -1,5 0,6 0,0 0,1 1,0 0,0 0,0 0,0 0,0 0,0 0,0 0,0 -3,-3 0,-5 0,0 0,0 0,0 -1,-1 -1,-1 -1,-1z"/>
  <path class="fil58" d="M167 58l0 0c-1,0 -1,-1 -1,-1l0 -1c0,0 1,0 1,1 0,0 0,0 0,1zm0 1c2,3 3,5 3,6 0,2 -1,4 -2,4 -1,1 -2,1 -3,1 -2,0 -8,-1 -13,-4 -3,-1 -5,-3 -4,-4 0,-2 2,-4 5,-5 1,-1 4,-2 6,-2 4,0 8,4 8,4zm-20 4c-1,0 -2,0 -3,0 -1,1 -2,2 -2,2 0,0 -1,-1 -2,-1 0,0 0,0 -1,0l8 -4c-1,0 -1,1 -1,1 0,1 0,1 1,2zm-3 8c1,4 1,8 0,10 -1,1 -1,1 -2,2 -1,0 -3,0 -5,0 -2,-1 -4,-2 -6,-5 0,0 -4,-4 -3,-7 1,-2 3,-3 5,-4 3,-1 6,-2 7,-2 2,1 4,3 4,6zm-15 7l-1 0c0,0 0,0 -1,0 0,-1 0,-1 0,-1l1 -1c0,1 1,1 1,2zm36 -23l-1 1c-1,-1 -3,-2 -5,-2 -3,0 -5,1 -7,2 -1,0 -2,1 -3,1l-14 8c-1,0 -2,1 -3,1 -2,1 -4,2 -5,5 -1,1 0,3 0,4l-1 1c0,0 0,1 0,2 1,1 2,1 3,1l1 0c1,2 4,4 7,5 2,1 4,1 6,0 1,-1 2,-1 2,-2 1,-2 2,-7 1,-11 -1,-1 -1,-2 -1,-3 0,0 0,0 0,0 0,-1 0,-1 0,-1l-1 -1c0,-1 0,-1 1,-2 1,0 2,0 2,0l1 1c0,1 0,1 1,1 0,0 0,-1 0,-1 1,1 2,2 3,2 5,3 11,4 14,4 1,0 2,0 2,-1 2,0 3,-2 3,-4 0,-2 -2,-5 -3,-7l0 0c1,-1 1,-2 0,-3 -1,-1 -2,-1 -3,-1z"/>
  <path class="fil57" d="M157 56c0,0 0,1 0,1 0,0 1,1 1,0 3,0 5,2 5,2 0,1 1,1 1,0 0,0 0,0 0,0 0,0 0,0 0,0 -1,-2 -4,-4 -7,-3z"/>
  <path class="fil59" d="M237 185c0,0 1,0 1,0 0,0 0,0 1,0 0,0 1,0 2,0l0 0 2 8c0,0 0,0 0,1 0,0 1,0 1,1l0 -1c0,0 0,-1 0,-1l2 -8c1,0 1,0 2,0 0,0 0,0 0,0 1,0 2,0 2,0l1 0 0 1 -1 0c0,0 0,0 -1,0 0,1 0,1 0,1l0 1 0 6c0,1 0,1 0,1 1,0 1,0 1,0l1 0 0 1c-1,0 -1,0 -1,0 -1,0 -1,0 -2,0 0,0 -1,0 -1,0 0,0 -1,0 -1,0l0 -1 0 0c1,0 1,0 1,0 0,0 1,0 1,-1l0 -8 -4 10 -1 0 -3 -10 0 8c0,1 0,1 0,1 0,0 0,0 1,0l0 0 0 1c0,0 -1,0 -1,0 0,0 -1,0 -1,0 -1,0 -1,0 -2,0 0,0 0,0 0,0l0 -1 0 0c0,0 1,0 1,0 0,0 0,0 0,-1l0 -6 0 -1c0,0 0,0 0,-1 0,0 -1,0 -1,0l0 0 0 -1zm22 8l-5 0c0,1 0,1 0,2 1,0 1,0 2,0 1,0 1,0 1,0 1,0 1,0 1,-1l1 0c0,1 0,1 -1,2 -1,0 -1,0 -2,0 -2,0 -3,0 -3,-1 -1,0 -1,-1 -1,-3 0,-1 0,-2 1,-2 0,-1 1,-1 3,-1 1,0 2,0 2,0 1,1 1,2 1,3l0 1zm-1 -1l0 0c0,-1 -1,-2 -1,-2 0,0 -1,-1 -1,-1 -1,0 -1,1 -2,1 0,0 0,1 0,2l4 0zm10 -2c0,0 1,-1 1,-1 1,0 1,0 2,0 0,0 1,0 1,0 0,0 1,0 1,0 0,1 0,1 0,1 0,1 0,1 0,2l0 2c0,1 0,1 1,1 0,0 0,0 0,0l0 1c0,0 0,0 0,0 -1,0 -1,0 -2,0 0,0 -1,0 -1,0 0,0 0,0 -1,0l0 -1c1,0 1,0 1,0 0,0 1,0 1,-1l0 -2c0,-1 -1,-2 -1,-2 0,0 0,0 -1,0 -1,0 -1,0 -1,0 -1,1 -1,1 -1,2l0 2c0,1 0,1 0,1 1,0 1,0 1,0l0 1c0,0 0,0 0,0 -1,0 -1,0 -2,0 0,0 -1,0 -1,0 0,0 0,0 -1,0l0 -1c1,0 1,0 1,0 0,0 0,0 0,-1l0 -2c0,-1 0,-2 0,-2 0,0 -1,0 -1,0 -1,0 -1,0 -1,0 -1,1 -1,1 -1,2l0 2c0,1 0,1 0,1 1,0 1,0 1,0l0 1c0,0 0,0 0,0 -1,0 -1,0 -2,0 0,0 -1,0 -1,0 0,0 -1,0 -1,0l0 -1c1,0 1,0 1,0 0,0 0,0 0,-1l0 -4c0,0 0,0 0,0 0,-1 0,-1 -1,-1l0 0c0,0 1,0 1,0 0,0 0,0 0,0 1,0 1,0 1,0 0,0 1,0 1,0l0 1c0,0 1,-1 1,-1 1,0 1,0 2,0 0,0 1,0 1,0 1,0 1,1 1,1zm11 -1c-1,0 -1,1 -1,1 -1,1 -1,1 -1,2 0,1 0,2 1,3 0,0 0,0 1,0 1,0 1,0 2,0 0,-1 0,-2 0,-3 0,-1 0,-1 0,-2 -1,0 -1,-1 -2,-1zm0 0c1,0 2,0 3,1 1,0 1,1 1,2 0,2 0,3 -1,3 -1,1 -2,1 -3,1 -1,0 -2,0 -3,-1 0,0 -1,-1 -1,-3 0,-1 1,-2 1,-2 1,-1 2,-1 3,-1zm11 0l0 2 -1 0 0 0c0,-1 0,-1 0,-1 0,0 0,0 -1,0 0,0 -1,0 -1,0 0,1 0,1 0,2l0 2c0,1 0,1 0,1 0,0 0,0 1,0l0 1c0,0 -1,0 -1,0 0,0 -1,0 -1,0 -1,0 -1,0 -1,0 -1,0 -1,0 -1,0l0 -1c0,0 1,0 1,0 0,0 0,0 0,-1l0 -4c0,0 0,0 0,0 0,-1 -1,-1 -1,-1l0 0c0,0 0,0 0,0 0,0 1,0 1,0 0,0 0,0 1,0 0,0 0,0 1,0l0 1c0,-1 0,-1 1,-1 0,0 0,0 1,0 0,0 0,0 0,0 1,0 1,0 1,0zm5 3c-1,0 -2,1 -2,1 0,0 0,0 0,1 0,0 0,1 0,1 0,0 1,0 1,0 1,0 1,0 1,0 1,-1 1,-1 1,-2l0 -1 -1 0zm3 0l0 2c0,1 0,1 0,1 0,0 0,1 1,1l0 0 0 0c0,0 0,0 -1,0 0,0 0,0 0,0 0,0 -1,0 -1,0 0,0 -1,0 -1,0l0 -1c0,0 0,1 -1,1 0,0 -1,0 -1,0 -1,0 -2,0 -3,0 0,-1 0,-1 0,-2 0,-1 0,-1 1,-2 0,0 1,0 3,0l1 0 0 -1c0,-1 0,-1 -1,-1 0,-1 0,-1 -1,-1 0,0 -1,0 -1,1 0,0 -1,0 -1,1l0 0 0 -2c0,0 1,0 1,0 0,0 1,0 1,0 2,0 2,0 3,0 0,1 1,1 1,3zm6 -2c-1,0 -1,0 -2,0 0,1 0,2 0,2 0,1 0,2 0,3 1,0 1,0 2,0 1,0 1,0 1,0 1,-1 1,-2 1,-3 0,0 0,-1 -1,-2 0,0 0,0 -1,0zm-2 -5l0 5c0,-1 1,-1 1,-1 0,0 1,0 1,0 1,0 2,0 3,1 0,0 1,1 1,3 0,1 -1,2 -1,2 -1,1 -2,1 -3,1 0,0 -1,0 -1,0 0,0 -1,-1 -1,-1l0 1c0,0 -1,0 -1,0 0,0 -1,0 -1,0 0,0 0,0 0,0 -1,0 -1,0 -1,0l0 0c1,0 1,-1 1,-1 0,0 0,0 0,0l0 -8c0,0 0,-1 0,-1 0,0 0,0 -1,0l0 -1c0,0 0,0 1,0 0,0 0,0 0,0 0,0 1,0 1,0 0,0 1,0 1,0zm10 0l0 9c0,1 0,1 0,1 0,0 0,0 1,0l0 1c0,0 -1,0 -1,0 0,0 -1,0 -1,0 -1,0 -1,0 -1,0 -1,0 -1,0 -1,0l0 -1c0,0 1,0 1,0 0,0 0,0 0,-1l0 -7c0,0 0,-1 0,-1 0,0 -1,0 -1,0l0 -1c0,0 0,0 0,0 0,0 1,0 1,0 0,0 0,0 1,0 0,0 0,0 1,0zm9 8l-5 0c0,1 0,1 0,2 1,0 1,0 2,0 1,0 1,0 1,0 1,0 1,0 1,-1l1 0c0,1 0,1 -1,2 0,0 -1,0 -2,0 -1,0 -2,0 -3,-1 -1,0 -1,-1 -1,-3 0,-1 0,-2 1,-2 1,-1 1,-1 3,-1 1,0 2,0 2,0 1,1 1,2 1,3l0 1zm-1 -1l0 0c0,-1 0,-2 -1,-2 0,0 -1,-1 -1,-1 -1,0 -1,1 -2,1 0,0 0,1 0,2l4 0zm10 -3l0 8c0,1 0,2 0,2 -1,0 -1,1 -2,1 -1,0 -1,0 -1,0 -1,0 -1,0 -1,-1l0 -2 1 0 0 1c0,0 0,0 0,1 0,0 0,0 0,0 1,0 1,0 1,-1 0,0 1,-1 1,-1l0 -7c0,0 0,0 -1,0 0,-1 0,-1 0,-1l0 0c0,0 0,0 0,0 0,0 0,0 0,0 1,0 1,0 1,0 1,0 1,0 1,0zm-1 -4c1,0 1,0 1,0 0,1 0,1 0,1 0,0 0,1 0,1 0,0 0,0 -1,0 0,0 0,0 0,0 0,0 -1,-1 -1,-1 0,0 0,0 1,-1 0,0 0,0 0,0zm7 4c-1,0 -1,1 -1,1 -1,1 -1,1 -1,2 0,1 0,2 1,3 0,0 0,0 1,0 1,0 1,0 2,0 0,-1 0,-2 0,-3 0,-1 0,-1 0,-2 -1,0 -1,-1 -2,-1zm0 0c1,0 2,0 3,1 1,0 1,1 1,2 0,2 0,3 -1,3 -1,1 -2,1 -3,1 -1,0 -2,0 -3,-1 0,0 -1,-1 -1,-3 0,-1 1,-2 1,-2 1,-1 2,-1 3,-1zm8 0l0 4c0,1 0,2 0,2 0,0 1,0 1,0 1,0 1,0 2,0 0,-1 0,-1 0,-2l0 -3c0,0 0,0 0,0 0,0 0,-1 -1,-1l0 0c0,0 1,0 1,0 0,0 0,0 0,0 0,0 1,0 1,0 0,0 1,0 1,0l0 6c0,0 0,0 0,0 0,0 1,1 1,1l0 0c0,0 0,0 0,0 0,0 -1,0 -1,0 0,0 0,0 -1,0 0,0 0,0 -1,0l0 -1c0,0 0,1 -1,1 0,0 -1,0 -1,0 -1,0 -2,0 -2,0 -1,-1 -1,-2 -1,-3l0 -2c0,-1 0,-1 0,-1 0,0 -1,-1 -1,-1l0 0c0,0 0,0 1,0 0,0 0,0 0,0 0,0 1,0 1,0 0,0 0,0 1,0zm13 0l0 2 -1 0 0 0c0,-1 0,-1 0,-1 0,0 0,0 -1,0 0,0 -1,0 -1,0 0,1 0,1 0,2l0 2c0,1 0,1 0,1 0,0 0,0 1,0l0 1c0,0 -1,0 -1,0 0,0 -1,0 -1,0 -1,0 -1,0 -1,0 -1,0 -1,0 -1,0l0 -1c0,0 1,0 1,0 0,0 0,0 0,-1l0 -4c0,0 0,0 0,0 0,-1 -1,-1 -1,-1l0 0c0,0 0,0 0,0 0,0 1,0 1,0 0,0 0,0 1,0 0,0 0,0 1,0l0 1c0,-1 0,-1 1,-1 0,0 0,0 1,0 0,0 0,0 0,0 1,0 1,0 1,0zm9 3l0 2c0,1 0,1 0,1 0,0 0,0 1,0l0 1c0,0 -1,0 -1,0 0,0 -1,0 -1,0 -1,0 -1,0 -1,0 -1,0 -1,0 -1,0l0 -1c0,0 1,0 1,0 0,0 0,0 0,-1l0 -2c0,-1 0,-2 0,-2 -1,0 -1,0 -2,0 0,0 -1,0 -1,0 0,1 -1,1 -1,2l0 2c0,1 1,1 1,1 0,0 0,0 1,0l0 1c-1,0 -1,0 -1,0 0,0 -1,0 -1,0 -1,0 -1,0 -2,0 0,0 0,0 0,0l0 -1c0,0 0,0 1,0 0,0 0,0 0,-1l0 -4c0,0 0,0 0,0 -1,-1 -1,-1 -1,-1l0 0c0,0 0,0 0,0 0,0 0,0 1,0 0,0 0,0 0,0 1,0 1,0 1,0l0 1c1,0 1,-1 1,-1 1,0 1,0 2,0 1,0 2,0 2,0 1,1 1,2 1,3zm9 1l-5 0c0,1 0,1 0,2 1,0 1,0 2,0 0,0 1,0 1,0 1,0 1,0 1,-1l1 0c0,1 0,1 -1,2 -1,0 -1,0 -2,0 -2,0 -3,0 -3,-1 -1,0 -1,-1 -1,-3 0,-1 0,-2 1,-2 0,-1 1,-1 2,-1 2,0 3,0 3,0 1,1 1,2 1,3l0 1zm-1 -1l0 0c0,-1 -1,-2 -1,-2 0,0 -1,-1 -1,-1 -1,0 -1,1 -2,1 0,0 0,1 0,2l4 0zm2 -3c0,0 1,0 1,0 0,0 0,0 1,0 0,0 0,0 0,0 1,0 1,0 2,0l0 0c-1,0 -1,1 -1,1 -1,0 -1,0 -1,0 0,0 0,0 0,0 0,0 0,0 0,0l2 5 2 -5c0,0 0,0 0,0 0,0 0,0 0,0 0,0 0,0 0,0 0,0 -1,-1 -1,-1l0 0c0,0 1,0 1,0 0,0 1,0 1,0 0,0 0,0 1,0 0,0 0,0 1,0l0 0c-1,1 -1,1 -1,1 0,0 0,0 0,0l-4 8c0,0 0,0 0,0 0,0 0,0 0,0 0,0 0,1 0,1 0,0 1,0 1,0l0 1c0,0 0,-1 0,-1 -1,0 -1,0 -2,0 0,0 -1,0 -1,0 0,0 0,1 -1,1l0 -1c1,0 1,0 1,0 0,-1 1,-1 1,-1l0 -2 -2 -5c-1,-1 -1,-1 -1,-1 0,0 0,-1 0,-1l0 0zm20 0l0 2 -1 0 0 0c0,-1 0,-1 0,-1 -1,-1 -1,-1 -2,-1 0,0 -1,0 -1,1 0,0 0,0 0,0 0,1 0,1 1,2 1,0 1,0 1,0 1,0 1,1 2,1 0,0 0,1 0,1 0,1 0,1 -1,2 0,0 -1,0 -2,0 0,0 -1,0 -1,0 -1,0 -1,0 -2,0l0 -2 1 0c0,0 0,0 0,0 0,0 0,0 0,0 0,0 0,0 0,0 0,0 0,0 0,0 0,1 0,1 0,1 1,1 1,1 2,1 0,0 1,0 1,-1 0,0 0,0 0,-1 0,0 0,0 -1,-1l0 0c-1,0 -2,-1 -2,-1 -1,0 -1,-1 -1,-1 0,-1 0,-2 1,-2 0,0 1,0 2,0 1,0 1,0 2,0 0,0 0,0 1,0zm3 -2l1 0 0 2 2 0 0 1 -2 0 0 4c0,1 0,1 0,1 0,0 1,0 1,0 0,0 0,0 1,0 0,0 0,0 0,-1l0 0 1 0 0 0c0,1 0,1 -1,2 0,0 -1,0 -1,0 -1,0 -2,0 -2,0 0,0 -1,-1 -1,-2l0 -4 -1 0 0 -1c1,0 1,0 2,-1 0,0 0,0 0,-1zm9 5c-1,0 -2,1 -2,1 0,0 -1,0 -1,1 0,0 1,1 1,1 0,0 0,0 1,0 1,0 1,0 1,0 1,-1 1,-1 1,-2l0 -1 -1 0zm3 0l0 2c0,1 0,1 0,1 0,0 0,1 0,1l1 0 0 0c0,0 -1,0 -1,0 0,0 0,0 0,0 0,0 -1,0 -1,0 0,0 -1,0 -1,0l0 -1c0,0 0,1 -1,1 0,0 -1,0 -2,0 0,0 -1,0 -2,0 0,-1 0,-1 0,-2 0,-1 0,-1 1,-2 0,0 1,0 3,0l1 0 0 -1c0,-1 0,-1 -1,-1 0,-1 0,-1 -1,-1 -1,0 -1,0 -1,1 -1,0 -1,0 -1,1l0 0 0 -2c0,0 0,0 1,0 0,0 1,0 1,0 1,0 2,0 3,0 0,1 1,1 1,3zm7 -3l0 2 0 0 0 0c0,-1 0,-1 -1,-1 0,0 0,0 0,0 -1,0 -1,0 -2,0 0,1 0,1 0,2l0 2c0,1 0,1 0,1 0,0 1,0 1,0l0 1c0,0 0,0 -1,0 0,0 0,0 -1,0 0,0 -1,0 -1,0 0,0 -1,0 -1,0l0 -1c1,0 1,0 1,0 0,0 0,0 0,-1l0 -4c0,0 0,0 0,0 0,-1 0,-1 -1,-1l0 0c0,0 0,0 1,0 0,0 0,0 0,0 0,0 1,0 1,0 0,0 1,0 1,0l0 1c0,-1 0,-1 1,-1 0,0 1,0 1,0 0,0 1,0 1,0 0,0 0,0 0,0zm3 -2l1 0 0 2 2 0 0 1 -2 0 0 4c0,1 0,1 0,1 0,0 0,0 1,0 0,0 0,0 0,0 1,0 1,0 1,-1l0 0 1 0 0 0c0,1 -1,1 -1,2 0,0 -1,0 -2,0 0,0 -1,0 -1,0 -1,0 -1,-1 -1,-2l0 -4 -1 0 0 -1c0,0 1,0 1,-1 1,0 1,0 1,-1z"/>
  <path class="fil59" d="M431 189l0 2 0 0 0 0c0,-1 0,-1 -1,-1 0,-1 -1,-1 -1,-1 -1,0 -1,0 -1,1 -1,0 -1,0 -1,0 0,1 1,1 2,2 0,0 0,0 1,0 0,0 1,1 1,1 1,0 1,1 1,1 0,1 -1,1 -1,2 -1,0 -1,0 -2,0 -1,0 -1,0 -2,0 0,0 -1,0 -1,0l0 -2 0 0c0,0 0,0 0,0 0,0 1,0 1,0 0,0 -1,0 -1,0 0,0 0,0 0,0 0,1 1,1 1,1 0,1 1,1 1,1 1,0 1,0 2,-1 0,0 0,0 0,-1 0,0 -1,0 -2,-1l0 0c-1,0 -2,-1 -2,-1 0,0 0,-1 0,-1 0,-1 0,-2 0,-2 1,0 2,0 3,0 0,0 1,0 1,0 1,0 1,0 1,0zm13 -4l0 2 -1 0 0 0c0,0 0,0 0,-1 0,0 -1,0 -1,0 0,0 -1,0 -1,0 0,1 0,1 0,2l0 1 2 0 0 1 -2 0 0 4c0,1 0,1 0,1 0,0 1,0 1,0l0 1c0,0 0,0 -1,0 0,0 0,0 -1,0 -1,0 -1,0 -1,0 -1,0 -1,0 -1,0l0 -1c0,0 1,0 1,0 0,0 0,0 0,-1l0 -4 -1 0 0 -1 1 0 0 -1c0,-1 0,-2 1,-2 0,-1 1,-1 2,-1 0,0 0,0 1,0 0,0 0,0 1,0zm6 4l0 2 -1 0 0 0c0,-1 0,-1 0,-1 -1,0 -1,0 -1,0 -1,0 -1,0 -1,0 -1,1 -1,1 -1,2l0 2c0,1 0,1 0,1 1,0 1,0 2,0l0 1c-1,0 -1,0 -1,0 -1,0 -1,0 -2,0 0,0 -1,0 -1,0 0,0 0,0 -1,0l0 -1c1,0 1,0 1,0 0,0 0,0 0,-1l0 -4c0,0 0,0 0,0 0,-1 0,-1 -1,-1l0 0c1,0 1,0 1,0 0,0 0,0 0,0 1,0 1,0 1,0 0,0 1,0 1,0l0 1c0,-1 1,-1 1,-1 0,0 1,0 1,0 1,0 1,0 1,0 0,0 0,0 1,0zm4 0c0,0 -1,1 -1,1 -1,1 -1,1 -1,2 0,1 0,2 1,3 0,0 1,0 1,0 1,0 1,0 2,0 0,-1 0,-2 0,-3 0,-1 0,-1 0,-2 -1,0 -1,-1 -2,-1zm0 0c1,0 2,0 3,1 1,0 1,1 1,2 0,2 0,3 -1,3 -1,1 -2,1 -3,1 -1,0 -2,0 -3,-1 0,0 -1,-1 -1,-3 0,-1 1,-2 1,-2 1,-1 2,-1 3,-1zm13 1c0,0 0,-1 1,-1 0,0 1,0 1,0 1,0 1,0 2,0 0,0 0,0 0,0 1,1 1,1 1,1 0,1 0,1 0,2l0 2c0,1 0,1 0,1 0,0 1,0 1,0l0 1c0,0 0,0 -1,0 0,0 0,0 -1,0 0,0 -1,0 -1,0 0,0 -1,0 -1,0l0 -1c1,0 1,0 1,0 0,0 0,0 0,-1l0 -2c0,-1 0,-2 0,-2 0,0 -1,0 -1,0 -1,0 -1,0 -2,0 0,1 0,1 0,2l0 2c0,1 0,1 0,1 0,0 1,0 1,0l0 1c0,0 0,0 -1,0 0,0 0,0 -1,0 -1,0 -1,0 -1,0 0,0 -1,0 -1,0l0 -1c0,0 1,0 1,0 0,0 0,0 0,-1l0 -2c0,-1 0,-2 0,-2 0,0 -1,0 -1,0 -1,0 -1,0 -2,0 0,1 0,1 0,2l0 2c0,1 0,1 0,1 0,0 1,0 1,0l0 1c0,0 -1,0 -1,0 0,0 0,0 -1,0 -1,0 -1,0 -1,0 -1,0 -1,0 -1,0l0 -1c0,0 1,0 1,0 0,0 0,0 0,-1l0 -4c0,0 0,0 0,0 0,-1 -1,-1 -1,-1l0 0c0,0 0,0 0,0 1,0 1,0 1,0 0,0 1,0 1,0 0,0 0,0 1,0l0 1c0,0 0,-1 1,-1 0,0 1,0 1,0 1,0 1,0 2,0 0,0 1,1 1,1zm15 -5l0 5c0,-1 0,-1 1,-1 0,0 1,0 1,0 1,0 2,0 2,0 1,1 1,2 1,3l0 2c0,1 0,1 0,1 0,0 0,0 1,0l0 1c0,0 -1,0 -1,0 0,0 -1,0 -1,0 -1,0 -1,0 -1,0 -1,0 -1,0 -1,0l0 -1c0,0 1,0 1,0 0,0 0,0 0,-1l0 -2c0,-1 0,-2 0,-2 -1,0 -1,0 -2,0 0,0 -1,0 -1,0 0,1 0,1 0,2l0 2c0,1 0,1 0,1 0,0 0,0 1,0l0 1c-1,0 -1,0 -1,0 0,0 -1,0 -1,0 -1,0 -1,0 -2,0 0,0 0,0 0,0l0 -1c0,0 0,0 1,0 0,0 0,0 0,-1l0 -7c0,0 0,-1 0,-1 -1,0 -1,0 -1,0l0 -1c0,0 0,0 0,0 0,0 0,0 1,0 0,0 0,0 1,0 0,0 0,0 1,0zm14 8l-5 0c0,1 0,1 0,2 1,0 1,0 2,0 1,0 1,0 1,0 1,0 1,0 1,-1l1 0c0,1 0,1 -1,2 -1,0 -1,0 -2,0 -2,0 -3,0 -3,-1 -1,0 -1,-1 -1,-3 0,-1 0,-2 1,-2 0,-1 1,-1 3,-1 1,0 2,0 2,0 1,1 1,2 1,3l0 1zm-1 -1l0 0c0,-1 -1,-2 -1,-2 0,0 -1,-1 -1,-1 -1,0 -1,1 -2,1 0,0 0,1 0,2l4 0zm8 -3l0 2 0 0 0 0c0,-1 0,-1 -1,-1 0,0 0,0 0,0 -1,0 -1,0 -1,0 -1,1 -1,1 -1,2l0 2c0,1 0,1 0,1 1,0 1,0 1,0l0 1c0,0 0,0 0,0 -1,0 -1,0 -2,0 0,0 -1,0 -1,0 0,0 -1,0 -1,0l0 -1c1,0 1,0 1,0 0,0 0,0 0,-1l0 -4c0,0 0,0 0,0 0,-1 0,-1 -1,-1l0 0c0,0 1,0 1,0 0,0 0,0 0,0 1,0 1,0 1,0 0,0 1,0 1,0l0 1c0,-1 1,-1 1,-1 0,0 1,0 1,0 1,0 1,0 1,0 0,0 0,0 0,0zm9 4l-6 0c0,1 0,1 1,2 0,0 1,0 1,0 1,0 1,0 2,0 0,0 0,0 0,-1l2 0c-1,1 -1,1 -1,2 -1,0 -2,0 -3,0 -1,0 -2,0 -3,-1 0,0 -1,-1 -1,-3 0,-1 1,-2 1,-2 1,-1 2,-1 3,-1 1,0 2,0 3,0 0,1 1,2 1,3l0 1zm-2 -1l0 0c0,-1 0,-2 0,-2 -1,0 -1,-1 -2,-1 0,0 -1,1 -1,1 -1,0 -1,1 -1,2l4 0zm5 2c0,0 0,1 1,1 0,0 0,0 0,0 0,1 0,1 0,1 -1,0 -1,0 -1,0 0,0 -1,0 -1,0 0,0 0,0 0,-1 0,0 0,0 0,0 0,0 1,-1 1,-1zm5 0c0,0 0,1 1,1 0,0 0,0 0,0 0,1 0,1 0,1 -1,0 -1,0 -1,0 -1,0 -1,0 -1,0 0,0 0,0 0,-1 0,0 0,0 0,0 0,0 0,-1 1,-1zm5 0c0,0 0,1 0,1 1,0 1,0 1,0 0,1 0,1 -1,1 0,0 0,0 0,0 -1,0 -1,0 -1,0 0,0 0,0 0,-1 0,0 0,0 0,0 0,0 0,-1 1,-1z"/>
  <rect class="fil60" x="237" y="136" width="287.623" height="1.41222"/>
  <path class="fil61" d="M276 101l0 0 9 14c1,1 1,3 2,4 0,0 0,1 0,2 0,0 0,1 0,1 -1,1 -1,1 -1,1 -1,0 -1,1 -2,1 0,0 -1,0 -1,0 -1,1 -1,1 -2,1 -1,1 -2,1 -3,1 0,1 -2,0 -3,-1 -1,-2 -2,-4 -3,-6 -1,-1 -1,-1 -1,-2 0,0 0,0 -1,-1 0,0 0,-1 0,-1 -1,0 -1,-1 -1,-1 -1,-1 -1,-2 -2,-3 0,-1 -1,-1 -1,-2 0,0 0,0 -1,-1 0,0 0,0 0,0 0,-1 0,-1 -1,-2 0,0 -1,-1 -1,-1 0,0 0,1 -1,2 0,1 0,2 0,3 0,0 -1,1 -1,1 0,0 0,1 0,1 0,0 0,0 0,1 0,0 0,0 0,0 0,1 -1,3 -1,4 0,1 0,2 -1,3 0,1 0,1 0,1 -1,0 -2,1 -2,1 0,0 0,0 0,0 -1,0 -1,0 -1,0 0,0 0,0 0,0 0,0 0,0 0,0 -1,0 -1,0 -1,-1 -1,0 -1,0 -1,0 -1,0 -1,0 -1,0 0,0 0,0 -1,0 -1,0 -3,0 -4,-1 -1,0 -2,-1 -2,-2 0,0 0,0 0,0 0,-1 0,-1 0,-1 0,-1 1,-3 1,-6 1,-3 2,-6 3,-9 0,-1 0,-2 0,-2 1,-1 1,-2 1,-3 0,0 0,0 0,0 0,-1 0,-1 0,-1 1,-1 1,-2 1,-3 0,0 1,-1 1,-2 0,0 0,-1 0,-1 0,0 0,0 0,0 1,-3 2,-5 2,-7 1,-2 1,-3 1,-3 0,0 0,1 0,1 0,0 -1,0 -1,0 0,0 0,0 0,0 0,0 0,0 0,0 0,0 -1,0 -1,0 0,0 0,0 0,0 -1,0 -1,0 -2,0 0,1 0,1 -1,1 -1,0 -1,-1 -2,-1 0,0 0,-1 0,-1 0,0 0,0 0,0 0,0 0,-1 0,-1 0,0 0,0 0,0 0,0 0,0 0,0 0,0 0,-1 0,-2 0,-1 1,-2 1,-3 0,-1 1,-3 2,-4 0,-1 1,-2 2,-2 1,0 1,0 2,-1 1,0 2,0 2,0 2,-1 4,-1 6,-1 2,-1 4,-1 7,-1 6,0 11,2 15,4 4,3 6,7 6,12 0,1 0,1 0,1 0,1 -1,1 -1,2 0,0 0,0 0,0 0,1 0,1 0,1 0,4 -2,7 -5,11 -3,3 -6,5 -10,5zm-9 -20l0 0c1,0 2,1 2,1 0,1 0,2 0,2 0,0 0,0 0,0 0,0 0,1 0,1 0,0 0,0 0,0 0,0 0,0 0,0 0,0 0,0 0,0 0,1 0,1 0,1 0,0 0,1 -1,2 0,0 0,1 0,2 0,0 0,0 0,0 0,1 -1,1 -1,1 0,0 0,0 0,0 0,1 0,1 0,1 1,0 1,0 2,0 1,0 1,0 2,-1 1,0 2,-1 4,-2 1,-1 2,-2 2,-3 0,-1 0,-1 0,-1 0,0 0,0 0,-1 0,0 0,0 0,0 0,0 0,0 0,0 0,0 0,0 0,0 0,0 0,0 0,0 0,-2 0,-3 -1,-4 -1,-1 -3,-2 -6,-2 0,0 -1,-1 -1,-1 0,0 0,0 -1,0 0,0 0,0 0,0 0,0 0,0 0,0 -1,1 -2,1 -3,1 -1,0 -2,0 -3,0 0,1 0,1 0,1 0,0 0,0 -1,0 0,0 0,0 0,0 0,0 0,0 1,0 0,0 0,0 1,0 0,0 1,1 2,1 0,0 0,0 0,0 0,0 0,0 0,0 1,0 1,0 1,1 1,0 1,0 1,0z"/>
  <path class="fil62" d="M356 122c-4,0 -6,-1 -8,-2 -2,0 -3,-1 -3,-3 0,-1 0,-1 0,-1 0,0 0,0 0,-1 0,0 0,0 1,-1 0,0 0,-1 0,-1 0,-3 1,-5 1,-7 1,-2 2,-3 4,-3 0,0 0,0 1,0 0,0 0,0 1,0 0,0 0,0 1,0 0,0 0,0 1,0 0,0 1,0 1,0 0,0 1,0 1,0 1,0 2,0 2,0 0,1 0,1 0,2 0,0 0,0 0,0 0,0 0,0 0,0 0,0 0,0 0,0 0,1 0,1 0,1l0 2 1 0c1,0 1,0 1,0 1,0 1,0 1,0 1,0 1,-1 2,-1 0,0 1,-1 1,-2 0,0 0,-1 0,-1 -1,-1 -1,-1 -1,-1 0,-2 -1,-3 -2,-5 0,-1 -1,-2 -2,-4 -1,-2 -3,-3 -4,-5 -1,-2 -1,-4 -1,-6 0,0 0,0 0,0 0,0 0,0 0,0 0,0 0,0 0,0 0,0 0,0 0,-1 0,-4 2,-8 7,-12 5,-3 11,-5 18,-5 1,0 1,0 2,0 0,0 1,0 1,0 2,0 3,0 4,1 2,0 2,1 2,3 0,0 0,0 0,0 0,0 0,0 0,0 0,0 0,0 0,0 0,0 0,0 0,0 0,1 0,1 0,2 0,0 0,1 0,1 -1,3 -1,5 -2,7 -1,2 -3,2 -6,2 0,0 0,0 0,0 0,0 -1,0 -1,0 0,0 -1,0 -1,0 -1,0 -1,0 -1,0 -1,0 -2,0 -2,0 0,0 0,0 -1,0 0,-1 0,-1 0,-1 0,0 0,0 0,0l-1 -1 -1 0c0,0 0,0 0,0 0,0 -1,0 -1,0 -1,0 -1,1 -1,1 -1,1 -1,1 -1,2 0,0 0,0 0,1 0,0 0,1 1,1 1,3 2,5 3,6 1,1 2,3 3,4 0,1 1,2 1,3 0,1 1,3 1,5 0,0 0,0 0,1 0,0 0,0 0,1 0,4 -2,8 -5,12 -3,4 -9,6 -16,6 -1,0 -1,0 -1,0 0,0 -1,0 -1,0l0 0z"/>
  <path class="fil63" d="M392 88l5 -18c0,0 0,0 1,0 0,0 0,-1 0,-1 0,0 0,0 0,0 0,0 0,0 0,-1 0,0 0,0 0,-1 1,0 1,0 1,0 0,-1 1,-1 1,-2 1,0 1,0 2,0 0,0 0,0 0,0 0,0 1,0 1,0 0,0 0,0 0,0 0,0 0,0 0,0 1,0 1,0 2,0 1,1 1,1 2,1 1,0 2,1 3,2 1,0 1,1 1,2 0,0 0,1 0,1 0,0 0,0 0,0 0,0 0,1 0,1 0,1 -1,1 -1,2l-4 14 9 0 5 -18c0,0 0,-1 0,-1 0,0 1,-1 1,-1 0,0 0,-1 0,-1 0,0 0,0 0,-1 0,0 1,0 1,0 1,-1 1,-1 2,-1 0,0 1,0 1,0 0,0 1,0 1,0 0,1 1,1 1,1 1,0 1,0 1,0 1,0 1,0 1,0 0,0 0,0 0,0 1,0 2,1 3,1 1,1 2,2 2,3 0,0 0,0 0,0 0,0 0,0 0,0 0,1 0,1 0,1 0,1 0,1 0,1l-1 4 -10 37c-1,0 -1,0 -1,1 0,0 0,0 0,0 0,1 0,1 0,2 0,0 0,0 0,1 -1,0 -1,0 -1,0 0,1 0,1 0,1 0,0 0,1 -1,1 0,0 0,0 0,0 0,1 -1,1 -2,2 0,0 -1,1 -2,1 -1,0 -1,0 -2,0 -1,0 -1,0 -2,0 0,0 -1,-1 -1,-1 -1,0 -2,0 -2,0 -1,0 -1,-1 -1,-1 -1,-1 -1,-1 -1,-2 0,0 0,0 0,-1 0,0 0,0 0,-1l5 -15 1 -4 -2 3c0,0 -1,0 -1,0 0,0 0,0 0,0 0,0 0,0 0,0 0,0 0,0 0,0 0,0 0,0 0,1 0,0 0,0 0,0 0,0 0,0 0,0 0,0 0,0 0,0 -1,0 -1,1 -2,1 0,0 -1,0 -3,0 0,0 -1,0 -1,0 -1,0 -1,0 -2,0l-4 15c0,1 0,1 0,2 0,0 -1,0 -1,1 0,0 0,0 0,0 0,0 0,0 0,0 -1,1 -1,1 -1,1 0,0 -1,0 -2,0 0,0 0,0 0,0 0,0 0,0 -1,0 0,0 0,0 0,0 0,0 0,0 0,0 0,0 0,0 -1,0 0,0 -1,0 -1,0 -2,0 -3,0 -4,-1 -2,0 -2,-1 -3,-1 0,0 0,-1 0,-1 0,0 0,0 0,0 0,-1 0,-1 0,-1 0,0 0,0 0,0l4 -15 -1 0c0,0 0,0 0,0 0,0 0,0 -1,0 0,0 0,-1 0,-1 0,0 0,0 0,0 -1,0 -1,-1 -1,-1 0,0 0,0 0,-1 0,0 0,-1 0,-2 0,0 1,-1 1,-1 0,-1 0,-1 0,-1 0,0 0,0 0,-1 0,0 0,0 0,-1 0,0 0,0 0,0 1,-2 1,-3 2,-4 0,-1 1,-1 2,-1l2 0z"/>
  <path class="fil64" d="M467 109l0 0c0,1 0,1 0,2 0,1 0,1 0,2 0,1 0,1 0,1 0,1 0,1 0,2 0,0 0,0 0,1 0,0 0,0 0,1 -1,2 -1,3 -2,3 -1,1 -2,1 -4,1 0,0 0,0 0,0 0,0 0,0 -1,0 0,0 0,0 0,0 0,0 0,0 -1,0 0,0 0,0 0,0 0,0 -1,0 -1,0 -1,0 -2,-1 -3,-1 -2,-1 -2,-2 -2,-3 0,0 0,0 0,0 0,0 0,0 0,0 0,0 0,0 0,0 0,0 0,0 0,0 0,-1 0,-2 0,-3 0,-1 0,-2 0,-3 0,-2 0,-3 0,-5 0,-1 0,-2 0,-2 0,0 0,0 0,0 0,0 0,1 0,1 0,0 0,0 -1,0 0,0 0,0 0,0 0,0 0,0 0,0 0,0 0,1 0,1 -1,0 -1,0 -1,0 0,0 0,0 0,0 0,0 0,0 0,1 0,0 -1,0 -1,0 0,0 0,0 0,0 0,0 0,0 0,0 0,0 0,0 0,0 0,0 0,0 0,0 -1,0 -1,0 -1,0 0,0 0,0 -1,0 0,0 0,0 0,0 0,0 0,0 -1,0 0,0 0,0 0,0 0,0 -1,0 -1,0 0,0 0,0 0,0 0,0 -1,0 -1,0 0,0 0,1 -1,2 0,1 -1,3 -2,4 0,0 0,0 0,1 0,0 0,0 0,0 0,1 -1,2 -1,3 -1,1 -1,2 -2,2 0,1 0,1 -1,1 -1,1 -1,1 -2,1 0,0 0,0 0,0 0,0 -1,0 -1,0 0,0 0,0 -1,0 0,-1 -1,-1 -1,-1 0,0 -1,0 -1,0 0,0 0,0 0,0 0,0 0,0 -1,0 0,0 0,0 0,0 -1,-1 -2,-1 -3,-2 -1,-1 -1,-2 -1,-3 0,0 0,0 0,0 0,-1 0,-1 0,-1 0,0 0,-1 0,-1 1,-1 1,-2 1,-2 0,0 0,0 0,0 0,0 0,0 0,0 0,-1 1,-2 1,-2 0,-1 1,-1 1,-1 -1,0 -1,-1 -1,-1 0,0 0,0 0,0 0,0 0,0 0,0 0,0 0,0 0,0 0,0 0,0 0,0 -1,0 -1,0 -1,-1 0,0 0,0 0,0 0,0 0,-1 0,-1 0,0 0,0 0,-1 0,0 0,-1 0,-1 0,0 0,-1 1,-1 0,0 0,-1 0,-1 0,0 0,-1 0,-1 0,0 0,-1 1,-1 0,0 0,0 0,0 0,0 0,0 0,0 0,-2 1,-3 1,-4 1,-1 2,-1 3,-2 0,0 0,0 1,0 0,0 0,0 0,0 0,0 1,0 1,0 0,0 0,0 0,0 0,0 1,0 1,0 0,0 0,0 0,0 0,0 1,-1 2,-4 1,-2 3,-5 5,-8 1,-3 3,-6 4,-8 1,-3 2,-4 2,-4 0,-1 1,-1 1,-1 0,-1 0,-1 1,-1 0,-1 1,-2 2,-2 0,-1 1,-1 2,-1 0,0 0,0 0,0 0,0 0,0 0,0 1,0 2,0 2,0 1,0 2,1 3,1 1,0 3,1 5,2 1,0 2,1 2,3 0,0 0,1 0,2 0,1 0,3 0,4 0,2 0,5 0,7 0,3 0,6 0,9 0,3 0,6 0,8 0,3 -1,6 -1,8zm-15 -15l0 0c0,0 0,0 0,0 1,1 1,1 1,1 0,0 0,0 0,0 0,0 0,0 1,0 0,0 0,0 0,0 0,-1 1,-1 1,-1l1 -10c0,0 0,1 -1,2 0,0 -1,1 -1,2 0,1 0,1 0,1 0,0 -1,0 -1,0 0,1 0,2 -1,3 0,1 0,1 0,2 0,0 0,0 0,0 0,0 0,0 0,0z"/>
  <path class="fil65" d="M512 120l0 0c0,0 -1,1 -2,1 0,0 -1,0 -2,0 -1,0 -2,0 -2,0 -1,0 -1,0 -2,0 -1,0 -3,-1 -4,-1 -1,0 -2,-1 -3,-2 0,0 0,-1 -1,-2 0,-1 0,-2 0,-4 0,0 0,-1 -1,-1 0,-1 0,-1 0,-2l-3 -18 -7 27c0,0 0,1 0,1 0,0 0,1 -1,1 0,1 0,1 -1,1 0,0 0,0 -1,0 0,0 -1,0 -1,0 0,0 0,0 -1,0 0,0 0,0 0,0 0,0 0,0 0,0 0,0 0,0 0,0 -1,0 -1,0 -1,0 0,0 -1,0 -1,0 -1,0 -1,0 -2,0 -1,0 -2,-1 -3,-1 -1,-1 -2,-1 -2,-2 0,-1 0,-1 0,-1 0,0 0,-1 0,-1 0,0 0,0 0,-1 0,0 0,0 0,0l3 -9 11 -36c0,-1 0,-1 0,-1 0,0 0,0 0,0 0,-1 0,-1 1,-2 0,-1 1,-1 2,-1 0,0 0,0 0,0 0,0 1,0 1,0 0,0 0,0 0,0 0,0 0,0 0,0 0,0 0,0 1,0 0,0 0,0 0,0 0,0 1,0 1,0 0,0 0,0 1,0 1,1 3,1 4,2 2,0 3,1 4,2 1,1 1,2 2,3 0,2 0,3 1,5 0,0 0,1 0,1 0,1 0,1 1,2 0,0 0,1 0,1 0,0 0,0 0,1 0,0 0,1 1,1 0,1 0,1 0,2 0,0 0,0 0,0 0,0 0,0 0,0 0,0 0,1 1,1 0,1 0,2 0,2l1 -5c0,-1 0,-2 1,-3 0,-2 0,-3 1,-5 0,0 0,-1 0,-1 0,0 0,0 0,0 0,-2 1,-3 1,-4 0,-1 1,-2 1,-3 0,0 0,0 0,0 0,0 0,-1 0,-1 0,0 1,0 1,-1 0,0 1,0 1,0 0,0 0,0 0,0 1,0 1,0 1,0 0,0 0,0 0,0 0,0 0,0 0,0 0,0 1,0 2,0 1,0 2,0 3,1 1,0 3,1 4,1 1,1 1,2 1,3 0,0 0,0 0,1 0,0 0,0 0,1 0,0 0,0 0,0 0,0 0,0 0,0 0,1 0,1 0,1 0,0 0,0 0,1 -1,1 -1,3 -2,5 0,3 -1,5 -2,8 0,0 0,1 0,1 0,1 0,1 -1,2 0,1 0,1 0,2 0,1 0,1 -1,2 0,1 0,2 -1,4 -1,2 -1,4 -2,6 -1,3 -2,6 -2,8 -1,2 -2,4 -2,4 0,0 0,0 0,0 0,0 0,0 0,0 0,0 0,1 0,1 1,0 1,0 1,0 0,0 0,1 0,1 0,0 0,0 0,0 0,0 0,0 0,0 0,0 0,0 0,0 0,1 0,1 0,1 0,0 0,0 0,0z"/>
  <g>
  </g>
  <g style="clip-path:url(#id0)">
   <g>
    <path class="fil66" d="M344 107c-3,8 -21,18 -37,13l6 -5c14,0 24,-3 31,-8z"/>
    <path class="fil67" d="M306 118c9,-10 20,-18 33,-22 4,-2 8,-4 7,0 0,3 -1,3 -3,4 -13,5 -24,12 -33,21 -3,0 -3,-1 -4,-3z"/>
    <path class="fil68" d="M295 93l-4 4c-2,-10 4,-18 12,-23 12,-9 30,-9 18,-3 -6,3 -10,4 -16,9 -2,2 -4,4 -5,7 0,0 -5,6 -5,6z"/>
    <path class="fil69" d="M292 96c7,-9 13,-16 24,-19 6,-2 10,-3 16,-4 2,-1 5,-1 6,0 1,1 1,2 1,4l-31 15 -2 1c-3,2 -5,5 -10,8 -3,2 -6,-3 -4,-5z"/>
    <path class="fil70" d="M295 103c-2,3 1,7 5,6 10,-14 25,-18 39,-25 4,-2 5,-6 1,-7 -8,-2 -42,18 -45,26z"/>
    <path class="fil71" d="M302 106c3,-3 26,-15 37,-18 8,-2 9,5 5,6 -11,3 -21,9 -37,18 -7,4 -11,-1 -5,-6z"/>
   </g>
  </g>
  <path class="fil72" d="M320 66c15,0 28,12 28,28 0,15 -13,28 -28,28 -16,0 -28,-13 -28,-28 0,-16 12,-28 28,-28z"/>
  <polygon class="fil73" points="239,172 239,151 242,151 242,159 251,159 251,151 254,151 254,172 251,172 251,162 242,162 242,172 "/>
  <path class="fil74" d="M267 161c0,1 0,2 1,3 0,1 1,2 2,3 0,1 1,1 2,2 1,0 2,0 3,0 1,0 2,0 4,0 1,-1 2,-2 3,-3 1,-1 1,-3 1,-5 0,-1 0,-3 -1,-4 0,-1 -1,-2 -2,-3 -2,-1 -3,-1 -5,-1 -1,0 -2,0 -3,1 -1,0 -2,1 -2,1 -1,1 -2,2 -2,3 -1,1 -1,2 -1,3zm-3 0c0,-2 1,-3 1,-4 1,-2 2,-3 3,-4 1,-1 2,-1 3,-2 1,0 3,-1 4,-1 1,0 2,1 4,1 1,0 2,1 3,2 1,1 2,2 3,3 1,2 1,3 1,5 0,1 0,3 -1,4 0,1 -1,3 -2,4 -1,1 -2,2 -3,2 -2,1 -3,1 -5,1l0 0c-1,0 -2,0 -4,-1 -1,0 -2,-1 -3,-2 -1,-1 -2,-2 -3,-3 0,-2 -1,-3 -1,-5z"/>
  <path class="fil75" d="M297 151l2 0 0 13c1,1 1,2 1,3 0,1 1,1 1,2 1,0 2,0 3,0l3 0 0 3 -4 0c-1,0 -2,0 -3,-1 -1,0 -1,-1 -2,-2 -1,-1 -1,-2 -1,-4l0 -14z"/>
  <polygon class="fil76" points="316,172 316,151 319,151 319,172 "/>
  <path class="fil77" d="M331 172l0 -21 5 0c2,0 3,0 5,1 1,1 3,2 4,3 1,2 1,4 1,6 0,1 0,3 0,4 -1,1 -1,2 -2,3 -1,1 -2,2 -3,3 -1,0 -3,1 -5,1l-1 0 0 -3 2 0c1,0 2,0 3,-1 1,-1 2,-2 3,-3 0,-2 0,-3 0,-4 0,-1 0,-3 -1,-4 0,-1 -1,-2 -2,-3 -2,0 -3,-1 -4,-1l-2 0 0 19 -3 0z"/>
  <path class="fil78" d="M356 172l0 -14c0,-2 1,-3 1,-4 1,-1 2,-2 3,-3 1,0 2,-1 3,-1 2,0 3,1 4,1 1,1 2,2 3,3 0,1 1,3 1,4l0 14 -3 0 0 -10 -8 0 0 -3 8 0c0,0 0,0 0,0 0,0 0,0 0,0 0,-2 0,-3 -1,-3 0,-1 0,-2 -1,-2 -1,-1 -2,-1 -2,-1l0 0c-2,0 -2,0 -3,1 -1,0 -1,1 -1,2 -1,0 -1,1 -1,2l0 14 -3 0z"/>
  <path class="fil76" d="M380 151l3 0 0 6c0,1 0,2 1,3 0,0 2,1 3,1 1,0 2,0 2,-1 1,0 1,-1 1,-1 1,-1 1,-1 1,-2l0 -6 3 0 0 6c0,1 -1,2 -1,3 -1,1 -1,2 -2,2 -1,1 -2,1 -3,1l0 9 -3 0 0 -9c-1,0 -2,-1 -3,-2 -1,0 -2,-2 -2,-4l0 -6z"/>
  <path class="fil75" d="M403 169l7 0c2,0 3,-1 4,-2 0,-1 -1,-2 -1,-2 -1,-1 -1,-1 -2,-2 -1,0 -2,-1 -3,-1 -1,-1 -2,-1 -3,-2 0,0 -1,-1 -1,-2 -1,0 -1,-1 -1,-2 0,-1 0,-2 1,-3 0,-1 1,-1 2,-2 1,0 1,0 2,0l8 0 0 2 -8 0c0,0 -1,1 -2,1 0,0 0,1 0,2 0,1 0,1 1,2 0,0 1,0 2,1 0,0 1,0 2,1 1,0 1,1 2,1 2,1 3,3 3,5 0,1 0,2 0,3 0,1 -1,1 -2,2 -1,0 -2,1 -4,1l-7 0 0 -3z"/>
  <path class="fil43" d="M435 172l0 -15c0,-1 0,-2 1,-3 0,-1 1,-2 2,-3 1,0 2,-1 4,-1 1,0 2,1 3,1 1,1 2,1 2,2 1,1 1,3 1,4 0,1 0,3 0,4 -1,1 -2,1 -3,2 -1,0 -1,1 -2,1l-4 0 0 -3 3 0c1,0 2,0 3,-1 0,-1 1,-2 1,-3 0,-1 -1,-1 -1,-2 0,0 0,-1 -1,-1 -1,-1 -1,-1 -2,-1 -2,0 -3,0 -4,1 0,1 0,2 0,3l0 15 -3 0zm13 -15l3 0 4 11 4 -11 3 0 -5 14c0,0 0,0 -1,1 0,0 0,0 -1,0 0,0 -1,0 -1,0 -1,-1 -1,-1 -1,-2l-5 -13zm16 10l0 -13 2 0 0 3 5 0 0 3 -5 0 0 8c0,0 0,0 1,1 0,0 0,0 1,0l3 0 0 3 -3 0c-1,0 -2,0 -3,-1 0,0 -1,-1 -1,-2 0,0 0,-1 0,-2zm10 3c0,0 0,-1 1,-1 0,0 0,-1 1,-1 0,0 0,0 1,1 0,0 0,0 0,0 1,0 1,1 1,1 0,1 0,1 -1,1 0,1 -1,1 -1,1 -1,0 -1,0 -1,-1 -1,0 -1,0 -1,-1zm8 -19l3 0 0 13c0,1 0,2 0,3 1,1 1,1 2,2 0,0 1,0 2,0l3 0 0 3 -4 0c0,0 -1,0 -2,-1 -1,0 -2,-1 -3,-2 0,-1 -1,-2 -1,-4l0 -14zm12 16l0 -13 2 0 0 3 5 0 0 3 -5 0 0 8c0,0 0,0 1,1 0,0 0,0 1,0l3 0 0 3 -3 0c-1,0 -2,0 -3,-1 0,0 -1,-1 -1,-2 0,0 0,-1 0,-2zm21 -16l2 0 0 14c0,1 0,2 -1,3 0,1 -1,2 -2,3 -1,1 -2,1 -4,1 -1,0 -3,0 -3,-1 -1,0 -2,-1 -3,-2 0,0 -1,-1 -1,-2 0,-1 0,-1 0,-2 0,-1 0,-3 0,-4 1,-1 1,-1 2,-2 0,-1 1,-1 2,-1 1,-1 1,-1 2,-1 2,0 4,0 5,1l0 3c-2,-1 -3,-1 -5,-1 -1,0 -2,0 -3,1 0,1 -1,2 -1,3 0,1 0,1 0,1 0,1 1,2 1,3 1,0 1,1 2,1 1,0 1,1 2,1 1,0 2,-1 2,-1 1,-1 2,-1 2,-2 0,-1 1,-2 1,-3l0 -13zm6 19c0,0 0,-1 0,-1 1,0 1,-1 2,-1 0,0 0,0 0,1 1,0 1,0 1,0 0,0 0,1 0,1 0,1 0,1 0,1 -1,1 -1,1 -1,1 -1,0 -1,0 -2,-1 0,0 0,0 0,-1z"/>
  <path class="fil43" d="M270 230c0,-2 -1,-3 -2,-3 1,0 1,-1 1,-3 0,-2 -1,-3 -3,-3l-6 0 0 13 6 0c2,0 4,-2 4,-4zm-3 0c0,1 0,1 -2,1l-2 0 0 -3 2 0c2,0 2,1 2,2zm0 -5c0,0 -1,1 -2,1l-2 0 0 -3 2 0c1,0 2,1 2,2zm13 5l0 -1c0,-3 -2,-5 -4,-5 -3,0 -4,2 -4,5 0,4 2,5 4,5 2,0 2,-1 3,-2l-1 -1c-1,0 -1,1 -2,1 -1,0 -2,-1 -2,-2l6 0zm-3 -2l-3 0c0,0 0,-1 0,-1 0,0 1,-1 2,-1 0,0 1,1 1,1 0,0 0,1 0,1zm13 6l0 -6c0,-1 -1,-2 -1,-3 -1,-1 -2,-1 -3,-1 0,0 -1,0 -2,1l0 -1 -2 0 0 10 2 0 0 -6c0,-1 1,-2 2,-2 0,0 1,1 1,2l0 6 3 0zm9 -1l0 -9 -2 0 0 1c0,-1 -1,-1 -2,-1 -1,0 -2,0 -2,1 -1,1 -1,2 -1,4 0,1 0,3 1,3 0,1 1,1 2,1 1,0 2,0 2,-1l0 1c0,1 0,2 -2,2 -1,0 -1,0 -2,-1l-1 2c1,1 2,1 3,1 3,0 4,-1 4,-4zm-2 -4c0,1 0,2 -1,2 -2,0 -2,-1 -2,-2 0,-2 0,-3 2,-3 1,0 1,1 1,3zm12 5l0 -7c0,-2 -1,-3 -4,-3 -1,0 -2,0 -3,1l1 2c1,-1 1,-1 2,-1 1,0 2,1 2,2l0 0 -2 0c-3,0 -4,1 -4,3 0,1 1,1 1,2 1,0 1,1 3,1 1,0 1,-1 2,-1l0 1 2 0zm-2 -4c0,1 0,1 -1,1 0,1 0,1 -1,1 -1,0 -1,-1 -1,-1 0,-1 0,-1 1,-1l2 0 0 0zm9 4l0 -2 -1 0c-1,0 -1,-1 -1,-1l0 -10 -2 0 0 10c0,1 0,3 2,3l2 0zm9 0l0 -10 -2 0 0 6c0,1 -1,2 -2,2 -1,0 -1,-1 -1,-2l0 -6 -3 0 0 6c0,1 1,2 1,3 1,0 2,1 2,1 1,0 2,-1 3,-1l0 1 2 0zm10 -9c-1,-1 -2,-1 -3,-1 -1,0 -2,1 -2,1l0 -1 -2 0 0 10 2 0 0 -6c0,-1 1,-2 2,-2 0,0 0,0 1,1l2 -2zm9 9l0 -10 -3 0 0 6c0,1 -1,2 -1,2 -1,0 -2,-1 -2,-2l0 -6 -2 0 0 6c0,1 0,2 1,3 0,0 1,1 2,1 1,0 2,-1 2,-1l0 1 3 0z"/>
  <path class="fil43" d="M392 230l-3 0c0,1 -1,1 -2,1 -1,0 -1,0 -2,0 0,-1 0,-1 0,-4 0,-2 0,-3 0,-3 1,-1 1,-1 2,-1 1,0 2,1 2,2l3 0c-1,-3 -3,-4 -5,-4 -2,0 -3,0 -4,1 -1,1 -1,3 -1,5 0,3 0,4 1,5 1,1 2,2 4,2 2,0 4,-2 5,-4zm9 4l0 -6c0,-1 0,-2 -1,-3 0,-1 -1,-1 -2,-1 -1,0 -2,0 -2,1l0 -4 -2 0 0 13 2 0 0 -6c0,-1 1,-2 1,-2 1,0 2,1 2,2l0 6 2 0zm10 -4l0 -1c0,-3 -1,-5 -4,-5 -2,0 -4,2 -4,5 0,4 2,5 5,5 1,0 2,-1 3,-2l-1 -1c-1,0 -1,1 -2,1 -2,0 -2,-1 -2,-2l5 0zm-2 -2l-3 0c0,0 0,-1 0,-1 0,0 1,-1 1,-1 1,0 2,1 2,1 0,0 0,1 0,1zm12 6l0 -6c0,-1 0,-2 -1,-3 0,-1 -1,-1 -2,-1 -1,0 -2,0 -2,1l0 -1 -2 0 0 10 2 0 0 -6c0,-1 1,-2 1,-2 1,0 2,1 2,2l0 6 2 0zm11 0l0 -6c0,-1 -1,-2 -1,-3 -1,-1 -2,-1 -3,-1 0,0 -1,0 -2,1l0 -1 -2 0 0 10 2 0 0 -6c0,-1 1,-2 2,-2 0,0 1,1 1,2l0 6 3 0zm9 0l0 -7c0,-2 -1,-3 -4,-3 -1,0 -2,0 -3,1l1 2c1,-1 1,-1 2,-1 1,0 2,1 2,2l0 0 -2 0c-3,0 -4,1 -4,3 0,1 1,1 1,2 1,0 2,1 3,1 1,0 1,-1 2,-1l0 1 2 0zm-2 -4c0,1 0,1 0,1 -1,1 -1,1 -2,1 -1,0 -1,-1 -1,-1 0,-1 0,-1 1,-1l2 0 0 0zm7 4l0 -9 -2 0 0 9 2 0zm0 -11l0 -2 -2 0 0 2 2 0z"/>
  <path class="fil43" d="M494 227c0,-2 0,-3 -1,-4 -1,-2 -2,-2 -4,-2l-5 0 0 13 5 0c2,0 3,-1 4,-2 1,-1 1,-3 1,-5zm-3 0c0,2 0,3 0,4 -1,0 -1,0 -2,0l-2 0 0 -8 2 0c1,0 1,0 2,1 0,0 0,1 0,3zm13 3l0 -1c0,-3 -2,-5 -4,-5 -3,0 -4,2 -4,5 0,4 2,5 4,5 2,0 3,-1 3,-2l-1 -1c-1,0 -1,1 -2,1 -1,0 -2,-1 -2,-2l6 0zm-3 -2l-3 0c0,0 0,-1 0,-1 0,0 1,-1 2,-1 0,0 1,1 1,1 0,0 0,1 0,1zm9 6l0 -2 -1 0c-1,0 -1,-1 -1,-1l0 -10 -2 0 0 10c0,1 1,3 3,3l1 0zm9 0l0 -6c0,-1 0,-2 0,-3 -1,-1 -2,-1 -3,-1 -1,0 -1,0 -2,1l0 -4 -2 0 0 13 2 0 0 -6c0,-1 1,-2 2,-2 0,0 1,1 1,2l0 6 2 0zm5 0l0 -9 -2 0 0 9 2 0zm0 -11l0 -2 -2 0 0 2 2 0z"/>
  <g>
  </g>
  <g style="clip-path:url(#id1)">
   <g>
    <path class="fil66" d="M253 233c-1,3 -7,7 -12,5l2 -2c4,0 8,-1 10,-3z"/>
    <path class="fil67" d="M240 237c3,-3 7,-6 12,-7 1,-1 2,-1 2,0 0,1 0,1 -1,1 -4,2 -8,4 -11,7 -1,0 -2,0 -2,-1z"/>
    <path class="fil68" d="M237 229l-2 1c-1,-3 1,-6 4,-8 4,-3 11,-3 6,-1 -2,1 -3,2 -5,3 -1,1 -1,2 -2,3 0,0 -1,2 -1,2z"/>
    <path class="fil69" d="M235 230c3,-3 5,-6 8,-7 2,0 4,-1 6,-1 1,0 2,0 2,0 0,0 0,1 0,1l-10 5 -1 1c-1,0 -2,1 -3,2 -1,1 -2,0 -2,-1z"/>
    <path class="fil70" d="M236 232c0,1 1,3 2,2 4,-5 9,-6 13,-8 2,-1 2,-2 1,-3 -3,0 -14,7 -16,9z"/>
    <path class="fil71" d="M239 233c1,-1 9,-5 12,-6 3,-1 3,2 2,2 -4,1 -7,3 -13,6 -2,2 -3,0 -1,-2z"/>
   </g>
  </g>
  <path class="fil72" d="M245 219c5,0 9,5 9,10 0,5 -4,10 -9,10 -5,0 -10,-5 -10,-10 0,-5 5,-10 10,-10z"/>
  <g>
  </g>
  <g style="clip-path:url(#id2)">
   <g>
    <path class="fil66" d="M374 233c0,3 -7,7 -12,5l2 -2c5,0 8,-1 10,-3z"/>
    <path class="fil67" d="M362 237c3,-3 6,-6 11,-7 1,-1 3,-1 2,0 0,1 0,1 -1,1 -4,2 -8,4 -11,7 -1,0 -1,0 -1,-1z"/>
    <path class="fil68" d="M358 229l-1 1c-1,-3 1,-6 3,-8 5,-3 11,-3 7,-1 -2,1 -4,2 -6,3 0,1 -1,2 -2,3 0,0 -1,2 -1,2z"/>
    <path class="fil69" d="M357 230c2,-3 4,-6 8,-7 2,0 3,-1 6,-1 0,0 1,0 1,0 1,0 1,1 1,1l-11 5 0 1c-2,0 -2,1 -4,2 -1,1 -2,0 -1,-1z"/>
    <path class="fil70" d="M358 232c-1,1 0,3 1,2 4,-5 9,-6 14,-8 1,-1 1,-2 0,-3 -2,0 -14,7 -15,9z"/>
    <path class="fil71" d="M360 233c1,-1 9,-5 13,-6 2,-1 3,2 2,2 -4,1 -8,3 -13,6 -2,2 -4,0 -2,-2z"/>
   </g>
  </g>
  <path class="fil72" d="M366 219c5,0 10,5 10,10 0,5 -5,10 -10,10 -5,0 -9,-5 -9,-10 0,-5 4,-10 9,-10z"/>
  <g>
  </g>
  <g style="clip-path:url(#id3)">
   <g>
    <path class="fil66" d="M477 233c-1,3 -7,7 -12,5l2 -2c5,0 8,-1 10,-3z"/>
    <path class="fil67" d="M464 237c3,-3 7,-6 12,-7 1,-1 2,-1 2,0 0,1 0,1 -1,1 -4,2 -8,4 -11,7 -1,0 -1,0 -2,-1z"/>
    <path class="fil68" d="M461 229l-2 1c-1,-3 2,-6 4,-8 5,-3 11,-3 7,-1 -3,1 -4,2 -6,3 -1,1 -1,2 -2,3 0,0 -1,2 -1,2z"/>
    <path class="fil69" d="M460 230c2,-3 4,-6 8,-7 2,0 3,-1 5,-1 1,0 2,0 2,0 0,0 0,1 0,1l-10 5 -1 1c-1,0 -1,1 -3,2 -1,1 -2,0 -1,-1z"/>
    <path class="fil70" d="M461 232c-1,1 0,3 1,2 4,-5 9,-6 14,-8 1,-1 1,-2 0,-3 -3,0 -14,7 -15,9z"/>
    <path class="fil71" d="M463 233c1,-1 9,-5 13,-6 2,-1 3,2 1,2 -3,1 -7,3 -12,6 -3,2 -4,0 -2,-2z"/>
   </g>
  </g>
  <path class="fil72" d="M469 219c5,0 10,5 10,10 0,5 -5,10 -10,10 -5,0 -10,-5 -10,-10 0,-5 5,-10 10,-10z"/>
 </g>
</svg>
