<?xml version="1.0" encoding="UTF-8"?>
<!DOCTYPE svg PUBLIC "-//W3C//DTD SVG 1.1//EN" "http://www.w3.org/Graphics/SVG/1.1/DTD/svg11.dtd">
<!-- Creator: CorelDRAW X8 -->
<svg xmlns="http://www.w3.org/2000/svg" xml:space="preserve" width="1.42534in" height="0.316862in" version="1.1" style="shape-rendering:geometricPrecision; text-rendering:geometricPrecision; image-rendering:optimizeQuality; fill-rule:evenodd; clip-rule:evenodd"
viewBox="0 0 581 129"
 xmlns:xlink="http://www.w3.org/1999/xlink">
 <defs>
  <style type="text/css">
   <![CDATA[
    .fil11 {fill:none}
    .fil8 {fill:#FFCC29}
    .fil7 {fill:#FAA954}
    .fil10 {fill:#ED3237}
    .fil9 {fill:#A8CF45}
    .fil5 {fill:#00AFEF}
    .fil6 {fill:#2957A4}
    .fil4 {fill:url(#id1);fill-rule:nonzero}
    .fil1 {fill:url(#id2);fill-rule:nonzero}
    .fil0 {fill:url(#id3);fill-rule:nonzero}
    .fil3 {fill:url(#id4);fill-rule:nonzero}
    .fil2 {fill:url(#id5);fill-rule:nonzero}
   ]]>
  </style>
   <clipPath id="id0">
    <path d="M154 2c32,0 58,26 58,58 0,33 -26,59 -58,59 -32,0 -58,-26 -58,-59 0,-32 26,-58 58,-58z"/>
   </clipPath>
  <radialGradient id="id1" gradientUnits="userSpaceOnUse" gradientTransform="matrix(-0.218134 1.54531 -1.54531 -0.218134 706 -793)" cx="538.855" cy="32.2413" r="39.5581" fx="538.855" fy="32.2413">
   <stop offset="0" style="stop-opacity:1; stop-color:#29C2DE"/>
   <stop offset="1" style="stop-opacity:1; stop-color:#0085A1"/>
  </radialGradient>
  <radialGradient id="id2" gradientUnits="userSpaceOnUse" gradientTransform="matrix(-0.18163 1.28667 -1.28667 -0.181629 352 -304)" xlink:href="#id1" cx="264.373" cy="30.8466" r="45.0823" fx="264.373" fy="30.8466">
  </radialGradient>
  <radialGradient id="id3" gradientUnits="userSpaceOnUse" gradientTransform="matrix(-0.174658 1.23738 -1.23738 -0.174658 112 -33)" xlink:href="#id1" cx="59.196" cy="34.0276" r="50.1426" fx="59.196" fy="34.0276">
  </radialGradient>
  <radialGradient id="id4" gradientUnits="userSpaceOnUse" gradientTransform="matrix(-0.174079 1.23369 -1.23368 -0.174078 545 -494)" xlink:href="#id1" cx="430.782" cy="31.7759" r="46.0934" fx="430.782" fy="31.7759">
  </radialGradient>
  <radialGradient id="id5" gradientUnits="userSpaceOnUse" gradientTransform="matrix(-0.205846 1.45871 -1.45873 -0.205849 472 -477)" xlink:href="#id1" cx="353.081" cy="31.4758" r="41.3669" fx="353.081" fy="31.4758">
  </radialGradient>
 </defs>
 <g id="Layer_x0020_1">
  <metadata id="CorelCorpID_0Corel-Layer"/>
  <path class="fil0" d="M64 77l0 0 17 28c2,3 3,5 4,7 1,2 1,4 1,5 0,1 0,2 -1,3 0,1 -1,1 -2,2 -1,0 -2,1 -3,1 0,1 -2,1 -3,1 -1,1 -2,2 -4,2 -2,1 -3,2 -5,3 -2,1 -4,0 -7,-4 -2,-4 -5,-8 -7,-13 -1,-1 -1,-1 -2,-2 0,-1 0,-2 -1,-2 0,-1 -1,-2 -2,-3 0,-1 -1,-2 -1,-3 -2,-2 -3,-3 -4,-5 0,-2 -1,-3 -2,-5 -1,0 -1,0 -1,-1 0,0 0,0 -1,-1 0,-1 -1,-2 -2,-3 0,-1 -1,-2 -2,-3 -1,1 -1,2 -2,4 0,2 -1,4 -1,6 0,1 0,2 -1,2 0,1 0,2 0,3 0,0 0,0 0,1 0,0 0,0 0,1 -1,3 -2,5 -2,8 -1,3 -1,5 -2,7 0,1 0,1 -1,2 -2,0 -3,1 -4,1 0,0 -1,0 -1,0 0,0 0,0 0,0 0,0 -1,0 -1,0 0,0 0,-1 0,-1 -1,0 -2,0 -2,0 -1,0 -2,0 -3,0 0,0 -1,0 -1,0 0,0 -1,0 -1,0 -4,-1 -7,-1 -10,-2 -2,-1 -4,-2 -4,-5 0,0 0,-1 0,-1 0,0 0,0 0,-1 1,-2 2,-6 3,-12 2,-6 3,-12 5,-19 0,-2 1,-4 1,-5 1,-2 1,-4 2,-5 0,-1 0,-1 0,-2 0,0 0,0 0,-1 1,-1 1,-3 2,-5 0,-2 1,-4 2,-6 0,0 0,-1 0,-1 0,0 0,0 0,-1 2,-5 3,-9 5,-13 1,-4 2,-6 2,-6 -1,0 -1,0 -1,0 -1,0 -1,0 -1,0 0,0 -1,0 -1,0 0,0 0,0 0,0 -1,0 -1,0 -2,1 0,0 0,0 -1,0 -1,0 -2,1 -3,1 0,0 -1,0 -2,0 -2,0 -3,0 -4,-1 -1,-1 -1,-2 -1,-3 0,0 0,0 0,0 0,0 0,0 0,0 0,0 0,0 0,-1 0,0 0,0 0,0 1,-1 1,-3 1,-4 1,-2 1,-4 2,-6 0,-3 2,-6 3,-9 1,-2 3,-4 5,-5 2,0 3,0 5,-1 1,0 3,0 4,-1 4,-1 8,-2 12,-2 5,-1 9,-1 14,-1 13,0 23,3 31,9 8,6 12,14 12,25 0,0 0,1 0,2 0,1 0,1 0,2 0,1 0,1 0,2 0,0 0,1 0,1 -2,8 -5,16 -11,22 -6,7 -12,11 -20,13zm-19 -43l0 1c1,0 2,1 3,2 1,1 1,2 1,4 0,0 0,0 0,0 0,0 0,0 0,1 0,0 0,0 0,0 0,0 0,0 0,0 0,1 0,1 0,1 0,1 0,1 -1,1 0,1 0,3 -1,4 0,1 -1,3 -1,5 -1,0 -1,0 -1,1 0,0 0,0 0,0 0,1 0,1 0,2 0,0 -1,1 -1,2 2,-1 3,-1 5,-1 1,0 2,-1 3,-1 3,-2 6,-4 8,-6 2,-2 4,-4 5,-7 0,0 0,0 0,-1 0,0 0,-1 0,-1 0,0 0,0 0,0 0,0 0,-1 0,-1 0,0 0,0 0,0 0,0 0,0 0,-1 1,-3 -1,-6 -3,-8 -2,-2 -6,-3 -12,-4 0,0 -1,0 -1,0 -1,0 -1,0 -2,0 0,0 0,0 -1,0 0,0 0,0 -1,0 -2,0 -4,0 -6,0 -2,1 -3,1 -5,2 0,0 0,0 -1,0 0,0 0,0 0,0 0,0 0,0 0,0 0,0 0,0 0,0 0,0 1,1 3,1 1,1 2,1 4,2 0,0 0,0 0,0 0,0 0,0 0,0 1,0 2,1 3,1 1,0 2,1 2,1z"/>
  <path class="fil1" d="M230 119c-8,-1 -14,-1 -17,-3 -4,-1 -6,-4 -6,-8 0,0 0,-1 0,-1 0,0 1,-1 1,-1 0,-1 0,-2 0,-3 0,-1 0,-2 1,-3 0,-5 2,-10 3,-14 2,-5 4,-7 7,-7 1,0 1,0 2,0 1,0 1,0 2,0 1,0 1,0 2,0 1,0 2,0 2,0 1,0 2,0 3,0 1,0 2,0 2,0 2,0 4,1 4,1 1,1 1,2 1,3 0,0 0,0 0,1 0,0 0,0 0,0 0,1 0,1 0,1 0,0 0,0 0,1l-1 5 3 0c0,0 1,0 2,0 0,0 1,-1 2,-1 1,0 2,-1 3,-2 1,-1 2,-2 2,-4 0,-1 0,-2 0,-2 -1,-1 -1,-2 -1,-3 -1,-3 -2,-6 -4,-9 -2,-3 -3,-5 -5,-8 -3,-4 -5,-8 -7,-12 -2,-4 -3,-8 -4,-12 0,0 0,0 0,0 0,0 0,0 0,0 0,0 0,-1 0,-1 0,0 0,0 0,0 0,-9 5,-18 15,-25 10,-8 23,-12 38,-12 1,0 2,0 3,0 1,0 2,0 3,0 4,0 6,1 9,2 3,1 4,3 4,6 0,0 0,0 0,0 0,0 0,0 0,1 0,0 0,0 0,0 0,0 0,0 0,0 0,1 0,2 0,4 0,1 -1,2 -1,3 0,6 -2,10 -3,14 -2,3 -6,5 -12,5 -1,0 -1,0 -1,0 -1,0 -1,0 -2,0 -1,0 -2,0 -3,0 0,0 -1,0 -2,0 -1,0 -3,0 -3,-1 -1,0 -1,0 -2,-1 0,0 0,0 0,-1 -1,0 -1,0 -1,-1l-1 -2 -2 0c0,0 0,0 -1,0 -1,1 -1,1 -2,1 -1,1 -2,1 -3,2 -1,1 -1,2 -1,3 0,1 0,2 0,3 1,0 1,1 2,2 2,6 5,10 7,13 2,3 4,6 5,8 1,2 2,4 3,7 1,2 1,5 1,9 1,0 1,1 1,2 0,1 0,2 0,2 0,10 -4,18 -10,26 -7,8 -18,11 -35,11 0,0 -1,0 -1,0 -1,0 -1,0 -2,0l0 1z"/>
  <path class="fil2" d="M306 48l10 -36c0,-1 0,-1 0,-2 1,0 1,-1 1,-1 0,0 0,0 0,-1 0,0 1,0 1,0 0,-1 0,-2 1,-2 0,-1 0,-1 0,-2 1,-1 2,-2 3,-3 1,0 3,0 4,0 0,0 0,0 1,0 0,0 0,0 0,0 0,0 1,0 1,0 0,0 0,0 0,0 1,0 2,0 4,0 1,1 3,1 4,2 3,1 5,2 6,3 2,2 3,3 3,6 0,0 0,0 0,0 0,0 0,0 0,1 0,0 0,1 -1,2 0,1 -1,3 -1,5l-9 28 19 0 10 -36c0,-2 1,-3 1,-3 0,-1 0,-2 1,-2 0,-1 0,-1 0,-2 0,0 1,-1 1,-1 0,-1 1,-2 2,-2 1,0 3,-1 4,-1 1,0 1,0 2,0 1,0 1,0 2,0 1,1 2,1 2,1 1,0 2,0 3,1 0,0 0,0 1,0 0,0 0,0 0,0 3,1 5,1 7,2 2,1 3,3 4,6 0,0 0,0 0,0 0,0 0,0 0,1 0,0 0,1 0,2 0,1 -1,1 -1,2l-2 7 -21 77c0,0 -1,1 -1,2 0,0 0,1 0,2 0,0 0,1 -1,2 0,1 0,2 0,2 -1,1 -1,1 -1,2 0,1 -1,1 -1,2 0,0 -1,0 -1,1 0,0 0,0 0,0 -1,2 -3,3 -4,4 -1,1 -3,2 -5,2 -1,0 -3,0 -4,0 -1,0 -3,0 -4,-1 -1,0 -2,0 -3,0 -1,0 -3,-1 -4,-1 -1,0 -2,-1 -3,-2 0,-1 0,-2 0,-4 0,0 0,-1 0,-2 0,0 0,-1 0,-1l10 -32 2 -9 -5 6c0,0 0,0 -1,0 0,1 0,1 0,1 0,0 0,0 0,0 0,0 0,0 0,0 0,0 0,1 -1,1 0,0 0,0 0,0 0,0 0,0 0,0 0,0 0,1 0,1 -1,0 -2,1 -3,2 -1,0 -3,1 -6,1 -1,0 -2,0 -3,-1 -2,0 -3,0 -4,0l-8 32c0,1 -1,1 -1,2 0,1 -1,2 -1,3 -1,0 -1,0 -1,0 0,1 0,1 0,1 -1,1 -1,1 -2,1 -1,1 -2,1 -5,1 0,0 0,0 0,0 0,0 0,0 0,0 0,0 0,0 0,0 0,0 0,0 0,0 -1,0 -2,0 -3,0 -1,0 -1,0 -2,0 -3,-1 -6,-1 -9,-2 -3,-1 -5,-2 -5,-3 0,-1 0,-1 -1,-1 0,-1 0,-1 0,-2 0,0 0,-1 0,-1 0,0 1,-1 1,-1l7 -30 -2 -1c0,0 0,0 0,0 0,0 0,0 -1,0 0,0 0,0 -1,-1 0,0 0,0 -1,-1 0,0 0,-1 0,-1 0,-1 0,-1 0,-2 0,-1 0,-2 0,-4 0,-1 0,-2 1,-4 0,0 0,0 0,-1 0,0 0,-1 0,-1 1,-1 1,-1 1,-2 0,-1 0,-1 0,-2 1,-3 2,-5 3,-7 1,-2 3,-3 6,-3l4 0z"/>
  <path class="fil3" d="M462 92l0 0c0,2 0,3 0,5 0,1 0,2 -1,4 0,1 0,2 0,3 0,1 0,2 0,3 0,0 0,1 0,2 0,0 0,1 -1,2 0,4 -1,6 -3,7 -2,1 -5,1 -7,1 -1,0 -1,0 -1,0 -1,0 -1,0 -1,0 -1,0 -1,0 -1,0 -1,0 -1,0 -1,0 -1,0 -1,0 -2,0 0,0 -1,0 -1,0 -3,-1 -5,-1 -8,-2 -2,-2 -3,-3 -3,-6 0,0 0,0 0,0 0,0 0,0 0,0 0,0 0,0 0,0 0,0 0,0 0,0 0,-2 0,-4 0,-6 0,-2 1,-4 1,-6 0,-4 0,-7 0,-10 0,-3 0,-5 0,-5 0,1 -1,1 -1,1 0,0 0,0 0,0 -1,0 -1,1 -1,1 0,0 0,0 0,0 -1,0 -1,1 -1,1 0,0 -1,0 -1,0 0,1 0,1 0,1 -1,0 -1,0 -1,1 0,0 0,0 -1,0 0,1 0,1 0,1 -1,0 -1,0 -1,0 0,0 0,0 0,0 0,0 -1,0 -1,0 0,1 0,1 0,1 0,0 -1,0 -1,0 0,0 -1,0 -1,0 -1,0 -1,0 -1,0 -1,0 -1,0 -1,0 -1,0 -1,0 -2,0 0,0 0,0 -1,0 0,0 -1,0 -1,0 0,0 -1,0 -1,0 0,0 -1,1 -2,4 -1,2 -2,5 -4,9 0,0 0,0 0,0 0,0 0,0 0,0 -1,3 -3,5 -4,7 -1,2 -2,4 -2,4 -1,2 -2,3 -3,3 -1,1 -3,1 -4,1 0,0 -1,0 -1,0 0,0 0,0 -1,0 0,0 -1,0 -2,-1 -1,0 -2,0 -3,0 0,0 -1,0 -1,-1 0,0 -1,0 -1,0 0,0 0,0 -1,0 0,0 0,0 0,0 -3,-1 -5,-2 -7,-4 -2,-1 -3,-3 -3,-6 0,0 0,-1 0,-1 0,0 1,-1 1,-1 0,-1 0,-2 1,-3 0,-1 1,-2 1,-4 0,0 0,0 0,0 0,0 0,0 0,0 1,-2 2,-3 2,-5 1,-1 1,-2 1,-2 0,0 0,0 0,0 0,0 0,0 -1,0 0,0 0,0 0,0 0,0 0,0 0,0 0,0 -1,-1 -1,-1 0,0 0,0 0,-1 -1,0 -1,-1 -1,-1 0,-1 0,-1 0,-1 0,-1 0,-2 0,-3 0,-1 1,-1 1,-2 0,-1 0,-1 0,-2 0,-1 1,-1 1,-2 0,-1 0,-2 1,-3 0,0 0,-1 0,-1 0,-1 0,-1 0,-1 0,0 1,0 1,0 1,-3 2,-5 3,-7 1,-2 3,-4 5,-4 1,-1 1,-1 2,-1 0,0 1,0 1,0 1,0 1,0 1,0 1,0 1,0 1,0 1,0 1,0 1,0 0,1 0,1 0,1 0,0 2,-3 5,-9 3,-5 6,-11 9,-17 4,-6 7,-12 10,-17 2,-5 4,-8 4,-9 1,-1 1,-1 2,-2 0,-1 1,-1 1,-2 2,-2 3,-3 4,-4 2,-1 3,-1 5,-1 1,0 1,0 1,0 0,0 0,0 0,0 1,0 3,0 4,0 2,1 4,1 5,1 4,1 7,2 10,4 4,2 5,4 5,7 1,1 1,2 1,5 0,2 0,5 0,8 0,4 0,9 0,15 -1,5 -1,11 -1,17 0,6 0,13 0,19 0,5 -1,11 -1,15zm-32 -31l0 0c0,1 1,1 1,1 0,0 1,0 1,0 0,0 1,0 1,0 0,0 0,0 0,0 1,0 1,0 2,0 0,0 1,0 1,0l2 -21c0,0 0,1 -1,3 -1,1 -2,3 -3,5 0,1 0,1 -1,1 0,1 0,1 0,1 -1,2 -2,4 -2,6 -1,1 -1,3 -1,4 0,0 0,0 0,0 0,0 0,0 0,0z"/>
  <path class="fil4" d="M555 115l0 0c-1,1 -1,2 -3,2 -2,1 -3,1 -6,1 -1,0 -2,0 -3,0 -2,0 -3,0 -4,-1 -3,0 -6,-1 -9,-2 -2,-1 -4,-2 -6,-3 0,-1 -1,-2 -1,-5 -1,-2 -1,-5 -2,-8 0,-1 0,-2 0,-3 0,-1 -1,-2 -1,-3l-6 -38 -15 56c0,1 0,1 -1,2 0,1 0,1 0,2 -1,1 -1,2 -2,3 -1,0 -2,0 -3,0 -1,0 -1,0 -2,0 -1,0 -1,0 -2,0 0,0 0,0 -1,0 0,0 0,0 0,0 0,0 0,0 0,0 -1,0 -1,0 -1,0 -1,0 -2,0 -3,0 -1,0 -3,0 -4,0 -2,-1 -5,-2 -7,-3 -2,-1 -3,-2 -3,-4 0,-1 0,-2 0,-2 0,-1 0,-2 0,-2 0,0 0,-1 0,-1 1,-1 1,-1 1,-1l5 -18 22 -77c0,0 0,0 0,0 0,0 0,0 0,0 1,-2 2,-4 3,-6 1,-1 2,-2 5,-2 0,0 0,0 0,0 0,0 0,0 1,0 0,0 0,0 0,0 0,0 0,0 1,0 0,0 0,0 0,0 1,1 1,1 1,1 1,0 2,0 2,0 1,0 2,0 2,0 3,1 7,2 10,3 3,1 5,3 7,5 1,2 3,4 4,7 1,3 1,6 2,9 0,1 1,2 1,3 0,2 1,3 1,4 0,0 0,1 0,2 1,0 1,1 1,2 0,1 1,2 1,3 0,1 0,2 1,3 0,0 0,0 0,0 0,0 0,0 0,0 0,1 0,2 1,3 0,1 0,3 1,4l2 -11c0,-1 1,-4 1,-7 1,-3 2,-6 3,-10 0,0 0,-1 0,-1 0,0 0,-1 0,-1 1,-3 2,-5 2,-8 1,-3 2,-5 2,-6 0,0 0,-1 0,-1 0,0 0,0 1,-1 0,0 1,-1 1,-2 1,-1 2,-1 3,-1 0,0 0,0 0,0 0,0 1,0 1,0 0,0 0,0 0,0 0,0 0,0 0,0 0,0 2,0 4,1 2,0 4,0 7,1 3,1 5,2 8,3 2,2 3,3 3,5 0,1 0,2 0,2 0,1 0,2 -1,2 0,1 0,1 0,1 0,1 0,1 0,1 0,0 0,1 0,1 0,1 -1,1 -1,2 0,3 -1,7 -2,12 -2,5 -3,10 -4,15 -1,1 -1,2 -1,3 -1,1 -1,3 -1,4 -1,1 -1,2 -1,4 -1,1 -1,2 -2,3 0,2 -1,5 -2,9 -2,5 -3,9 -5,14 -1,6 -3,11 -5,16 -1,5 -2,8 -2,8 0,0 0,0 0,0 0,0 0,0 0,0 0,1 0,1 0,2 0,0 0,1 0,1 0,0 0,0 1,1 0,0 0,0 0,0 0,0 0,0 0,1 0,0 0,0 0,0 0,0 0,0 0,1 0,0 0,0 0,0z"/>
  <g>
  </g>
  <g style="clip-path:url(#id0)">
   <g>
    <path class="fil5" d="M204 87c-5,17 -43,39 -76,28l13 -10c29,0 49,-6 63,-18z"/>
    <path class="fil6" d="M126 112c19,-22 41,-39 69,-48 8,-2 16,-6 14,2 -1,5 -1,5 -6,7 -26,11 -50,26 -69,44 -5,0 -7,-2 -8,-5z"/>
    <path class="fil7" d="M103 59l-8 9c-6,-22 7,-38 23,-49 27,-19 65,-19 40,-6 -13,6 -23,9 -34,19 -4,5 -8,9 -12,14 0,0 -9,14 -9,13z"/>
    <path class="fil8" d="M97 65c13,-20 26,-33 48,-39 13,-4 22,-7 35,-10 3,0 10,-2 12,2 1,1 2,3 1,7l-64 32 -4 2c-6,4 -10,9 -20,16 -7,4 -12,-5 -8,-10z"/>
    <path class="fil9" d="M102 79c-3,6 2,16 10,13 23,-29 54,-38 82,-51 8,-4 11,-14 3,-16 -17,-4 -87,39 -95,54z"/>
    <path class="fil10" d="M117 86c6,-6 54,-31 78,-37 15,-5 18,10 11,12 -24,7 -45,19 -79,38 -14,8 -22,-3 -10,-13z"/>
   </g>
  </g>
  <path class="fil11" d="M154 2c32,0 58,26 58,58 0,33 -26,59 -58,59 -32,0 -58,-26 -58,-59 0,-32 26,-58 58,-58z"/>
 </g>
</svg>
